<?xml version="1.0" encoding="UTF-8"?>
<svg xmlns="http://www.w3.org/2000/svg" xmlns:xlink="http://www.w3.org/1999/xlink" width="595.5pt" height="842.249979pt" viewBox="0 0 595.5 842.249979" version="1.2">
<defs>
<clipPath id="clip1">
  <path d="M 145 485.796875 L 442 485.796875 L 442 512 L 145 512 Z M 145 485.796875 "/>
</clipPath>
</defs>
<g id="surface1">
<path style=" stroke:none;fill-rule:nonzero;fill:rgb(51.759338%,32.548523%,19.999695%);fill-opacity:1;" d="M 254.929688 467.570312 C 253.664062 467.570312 252.398438 467.597656 251.140625 467.65625 C 249.878906 467.714844 248.625 467.804688 247.382812 467.917969 C 246.140625 468.035156 244.914062 468.179688 243.703125 468.355469 C 242.488281 468.527344 241.296875 468.726562 240.128906 468.957031 C 238.957031 469.183594 237.8125 469.441406 236.695312 469.722656 C 235.578125 470.003906 234.492188 470.308594 233.441406 470.640625 C 232.386719 470.972656 231.371094 471.328125 230.390625 471.707031 C 229.410156 472.085938 228.472656 472.484375 227.578125 472.90625 C 226.683594 473.332031 225.832031 473.773438 225.03125 474.234375 C 224.226562 474.695312 223.472656 475.171875 222.769531 475.671875 C 222.0625 476.167969 221.414062 476.679688 220.816406 477.203125 C 220.21875 477.730469 219.679688 478.269531 219.195312 478.820312 C 218.707031 479.371094 218.28125 479.933594 217.914062 480.503906 C 217.546875 481.078125 217.238281 481.65625 216.992188 482.242188 C 216.746094 482.828125 216.558594 483.417969 216.433594 484.011719 C 216.3125 484.605469 216.25 485.199219 216.25 485.796875 C 216.25 486.394531 216.3125 486.988281 216.433594 487.582031 C 216.558594 488.175781 216.746094 488.765625 216.992188 489.351562 C 217.238281 489.9375 217.546875 490.515625 217.914062 491.085938 C 218.28125 491.660156 218.707031 492.21875 219.195312 492.773438 C 219.679688 493.324219 220.21875 493.863281 220.816406 494.390625 C 221.414062 494.914062 222.0625 495.425781 222.769531 495.921875 C 223.472656 496.417969 224.226562 496.898438 225.03125 497.359375 C 225.832031 497.820312 226.683594 498.261719 227.578125 498.683594 C 228.472656 499.109375 229.410156 499.507812 230.390625 499.886719 C 231.371094 500.265625 232.386719 500.621094 233.441406 500.953125 C 234.492188 501.285156 235.578125 501.589844 236.695312 501.871094 C 237.8125 502.152344 238.957031 502.40625 240.128906 502.636719 C 241.296875 502.863281 242.488281 503.066406 243.703125 503.238281 C 244.914062 503.414062 246.140625 503.558594 247.382812 503.675781 C 248.625 503.789062 249.878906 503.878906 251.140625 503.9375 C 252.398438 503.996094 253.664062 504.023438 254.929688 504.023438 C 256.199219 504.023438 257.460938 503.996094 258.722656 503.9375 C 259.984375 503.878906 261.234375 503.789062 262.476562 503.675781 C 263.71875 503.558594 264.945312 503.414062 266.160156 503.238281 C 267.371094 503.066406 268.5625 502.863281 269.734375 502.636719 C 270.902344 502.40625 272.046875 502.152344 273.164062 501.871094 C 274.28125 501.589844 275.367188 501.285156 276.421875 500.953125 C 277.472656 500.621094 278.492188 500.265625 279.46875 499.886719 C 280.449219 499.507812 281.386719 499.109375 282.28125 498.683594 C 283.179688 498.261719 284.027344 497.820312 284.832031 497.359375 C 285.636719 496.898438 286.390625 496.417969 287.09375 495.921875 C 287.796875 495.425781 288.449219 494.914062 289.046875 494.390625 C 289.640625 493.863281 290.183594 493.324219 290.667969 492.773438 C 291.152344 492.21875 291.578125 491.660156 291.945312 491.085938 C 292.316406 490.515625 292.621094 489.9375 292.871094 489.351562 C 293.117188 488.765625 293.300781 488.175781 293.425781 487.582031 C 293.550781 486.988281 293.613281 486.394531 293.613281 485.796875 C 293.613281 485.199219 293.550781 484.605469 293.425781 484.011719 C 293.300781 483.417969 293.117188 482.828125 292.871094 482.242188 C 292.621094 481.65625 292.316406 481.078125 291.945312 480.503906 C 291.578125 479.933594 291.152344 479.371094 290.667969 478.820312 C 290.183594 478.269531 289.640625 477.730469 289.046875 477.203125 C 288.449219 476.679688 287.796875 476.167969 287.09375 475.671875 C 286.390625 475.171875 285.636719 474.695312 284.832031 474.234375 C 284.027344 473.773438 283.179688 473.332031 282.28125 472.90625 C 281.386719 472.484375 280.449219 472.085938 279.46875 471.707031 C 278.492188 471.328125 277.472656 470.972656 276.421875 470.640625 C 275.367188 470.308594 274.28125 470.003906 273.164062 469.722656 C 272.046875 469.441406 270.902344 469.183594 269.734375 468.957031 C 268.5625 468.726562 267.371094 468.527344 266.160156 468.355469 C 264.945312 468.179688 263.71875 468.035156 262.476562 467.917969 C 261.234375 467.804688 259.984375 467.714844 258.722656 467.65625 C 257.460938 467.597656 256.199219 467.570312 254.929688 467.570312 Z M 254.929688 467.570312 "/>
<g clip-path="url(#clip1)" clip-rule="nonzero">
<path style=" stroke:none;fill-rule:nonzero;fill:rgb(72.938538%,72.549438%,72.158813%);fill-opacity:1;" d="M 211.835938 504.976562 L 213.058594 505.246094 C 209.019531 504.492188 204.828125 503.359375 200.789062 502.285156 C 205.09375 503.84375 209.925781 505.460938 214.648438 506.480469 C 215.816406 506.75 216.988281 506.964844 218.15625 507.128906 C 219.324219 507.289062 220.4375 507.449219 221.5 507.503906 C 223.675781 507.613281 225.75 507.613281 227.605469 507.289062 C 227.925781 507.882812 230.316406 508.636719 232.652344 509.121094 C 234.988281 509.605469 237.269531 509.925781 237.378906 509.765625 C 239.289062 509.710938 241.148438 509.710938 243.113281 509.65625 L 239.183594 509.65625 L 243.113281 509.65625 C 255.273438 509.550781 268.335938 509.65625 281.929688 508.527344 C 285.699219 508.257812 292.707031 507.34375 299.609375 506.105469 C 306.515625 504.867188 313.363281 503.359375 317.132812 502.609375 C 318.195312 502.390625 319.3125 502.175781 320.375 501.90625 C 318.566406 502.230469 318.566406 502.230469 316.710938 502.609375 C 321.167969 501.207031 325.207031 499.917969 329.082031 498.785156 C 328.339844 498.785156 328.179688 498.679688 326.480469 498.839844 L 328.550781 498.464844 C 330.304688 497.546875 334.550781 496.578125 336.460938 495.933594 C 336.089844 496.257812 337.683594 495.988281 339.066406 495.71875 L 338.480469 495.664062 C 341.136719 495.128906 343.949219 494.535156 346.765625 493.941406 C 348.144531 493.675781 349.527344 493.40625 350.851562 493.191406 C 351.488281 493.082031 352.179688 492.972656 352.816406 492.867188 C 353.453125 492.757812 354.039062 492.707031 354.675781 492.597656 C 355.3125 492.488281 355.84375 492.542969 356.164062 492.597656 L 358.445312 492.167969 L 360.730469 491.84375 C 360.410156 492.222656 364.554688 491.738281 362.375 492.167969 C 364.074219 491.789062 365.773438 491.683594 367.472656 491.519531 C 368.324219 491.46875 369.171875 491.359375 369.96875 491.304688 C 370.820312 491.253906 371.617188 491.199219 372.410156 491.089844 C 375.332031 490.984375 378.253906 491.199219 381.226562 491.304688 C 382.714844 491.46875 384.199219 491.574219 385.6875 491.738281 L 386.800781 491.84375 L 387.917969 492.003906 C 388.660156 492.113281 389.402344 492.222656 390.148438 492.328125 C 396.09375 493.296875 402.042969 494.859375 407.828125 496.796875 L 407.617188 496.578125 C 411.652344 497.925781 415.371094 498.839844 419.9375 501.371094 C 423.441406 502.609375 428.21875 505.027344 429.8125 505.191406 C 433.582031 507.289062 435.230469 507.933594 438.894531 510.089844 C 438.148438 509.171875 442.558594 512.023438 440.964844 510.625 C 438.839844 508.6875 438.523438 508.902344 436.664062 507.34375 L 436.664062 507.503906 C 432.042969 504.277344 427.265625 501.261719 422.273438 498.570312 C 417.28125 495.828125 412.078125 493.40625 406.660156 491.414062 C 402.996094 490.285156 399.121094 489.101562 395.140625 488.132812 C 393.121094 487.699219 391.15625 487.214844 389.136719 486.945312 L 387.652344 486.679688 L 386.113281 486.515625 C 385.101562 486.410156 384.09375 486.300781 383.085938 486.195312 C 382.554688 486.140625 382.023438 486.085938 381.4375 486.03125 C 380.90625 486.03125 380.324219 485.976562 379.792969 485.976562 C 378.675781 485.925781 377.617188 485.925781 376.5 485.871094 C 375.386719 485.816406 374.269531 485.871094 373.207031 485.925781 C 372.09375 485.976562 371.03125 485.976562 369.917969 486.03125 C 367.738281 486.195312 365.667969 486.355469 363.597656 486.570312 C 361.578125 486.839844 359.667969 487.109375 357.808594 487.378906 C 356.109375 487.699219 354.835938 487.59375 353.296875 487.648438 C 346.65625 488.777344 338.320312 490.390625 331.046875 492.328125 C 331.207031 492.273438 331.3125 492.273438 331.417969 492.273438 C 327.542969 493.242188 324.566406 493.621094 320.851562 494.589844 C 320.90625 494.695312 320.320312 494.804688 320.054688 494.964844 C 319.683594 494.804688 314.214844 496.417969 308.636719 497.980469 C 305.875 498.785156 303.0625 499.484375 300.886719 500.078125 C 298.707031 500.617188 297.117188 500.9375 296.742188 500.9375 C 296.371094 501.046875 295.945312 501.15625 295.523438 501.207031 C 287.503906 502.554688 279.113281 502.660156 272.265625 503.253906 C 270.777344 503.574219 269.132812 503.898438 267.855469 504.167969 C 266.636719 504.007812 266.421875 504.4375 264.9375 504.4375 C 263.023438 504.058594 261.539062 503.953125 260.792969 504.007812 C 259.996094 504.058594 259.945312 504.222656 260.953125 504.382812 C 260.15625 504.4375 259.414062 504.492188 258.671875 504.492188 L 256.386719 504.492188 C 254.898438 504.492188 253.414062 504.492188 252.03125 504.4375 C 250.757812 504.492188 249.484375 504.492188 248.210938 504.542969 C 247.09375 504.597656 246.511719 504.382812 245.980469 504.167969 C 244.597656 504.167969 244.121094 504.113281 243.589844 504.007812 C 243.058594 503.953125 242.582031 503.84375 241.09375 503.683594 C 240.777344 503.46875 238.917969 503.523438 237.058594 503.46875 C 235.199219 503.414062 233.339844 503.414062 232.917969 503.359375 L 233.394531 503.359375 C 231.695312 503.144531 230.367188 502.769531 228.988281 502.445312 C 227.605469 502.125 226.277344 501.746094 224.632812 501.476562 C 222.351562 501.101562 220.066406 500.617188 217.78125 500.238281 C 216.613281 500.023438 215.445312 499.753906 214.332031 499.539062 C 213.164062 499.324219 211.996094 499.109375 210.878906 498.839844 C 206.261719 497.816406 201.695312 496.742188 197.5 495.71875 C 197.339844 496.042969 199.355469 496.097656 199.355469 496.527344 C 194.417969 495.289062 189.375 493.78125 184.171875 493.027344 C 183.269531 492.8125 182.097656 492.488281 181.675781 492.328125 C 179.976562 492.003906 180.664062 492.382812 179.445312 492.222656 L 179.285156 491.898438 C 177.425781 492.003906 176.628906 491.359375 174.878906 491.46875 C 174.773438 491.574219 174.132812 491.574219 173.550781 491.574219 C 173.496094 491.253906 171.636719 491.574219 171.746094 491.304688 C 171.375 491.304688 171.109375 491.359375 170.628906 491.304688 C 170.46875 491.359375 169.886719 491.414062 169.144531 491.574219 C 168.769531 491.628906 168.347656 491.738281 167.921875 491.84375 C 167.496094 491.953125 167.019531 492.058594 166.59375 492.167969 C 164.789062 492.597656 162.984375 493.136719 162.664062 493.296875 L 162.347656 493.296875 C 161.390625 493.457031 161.019531 493.78125 161.550781 493.726562 C 161.125 493.78125 160.753906 493.890625 160.328125 493.996094 L 160.488281 493.941406 L 159.265625 494.210938 C 159.054688 494.210938 158.734375 494.160156 159.054688 493.941406 C 158.417969 494.210938 157.671875 494.480469 156.984375 494.644531 C 158.894531 494.265625 161.285156 493.996094 163.300781 493.996094 C 162.929688 494.105469 162.347656 494.210938 161.761719 494.320312 C 161.179688 494.375 160.59375 494.535156 160.167969 494.644531 C 159.902344 494.644531 159.585938 494.695312 159.160156 494.695312 C 158.789062 494.75 158.363281 494.804688 157.886719 494.910156 C 156.984375 495.019531 156.027344 495.289062 155.175781 495.503906 C 154.804688 495.613281 154.699219 496.097656 153.851562 496.257812 C 153.371094 496.203125 152.945312 496.578125 152.203125 496.742188 C 152.894531 496.257812 153.691406 496.042969 154.488281 495.773438 C 154.273438 495.558594 152.523438 496.3125 151.886719 496.527344 C 151.777344 496.632812 151.300781 496.847656 150.769531 497.0625 C 150.238281 497.332031 149.65625 497.601562 149.230469 497.871094 C 149.496094 497.441406 148.378906 498.085938 147.796875 498.300781 C 147.210938 498.25 146.894531 498.570312 147.160156 498.515625 C 147.160156 498.679688 147.742188 498.410156 148.273438 498.140625 C 148.804688 497.871094 149.285156 497.710938 148.910156 498.03125 C 148.59375 498.03125 147.476562 498.785156 146.839844 499.164062 C 146.894531 499.324219 147.320312 499 147 499.378906 C 146.308594 499.808594 145.726562 500.453125 145.246094 500.5625 C 145.355469 500.453125 145.621094 500.292969 145.832031 500.132812 C 145.621094 500.292969 145.777344 500.078125 146.097656 499.753906 C 146.257812 499.59375 146.46875 499.378906 146.734375 499.164062 C 147 498.949219 147.265625 498.734375 147.53125 498.464844 C 148.59375 497.496094 149.707031 496.6875 149.125 497.0625 C 149.230469 497.0625 148.964844 497.28125 148.539062 497.601562 C 148.113281 497.980469 147.53125 498.464844 146.945312 498.894531 C 145.832031 499.863281 144.824219 500.886719 145.089844 500.671875 C 145.671875 500.402344 144.875 501.15625 145.460938 500.832031 L 145.9375 500.238281 C 146.734375 499.808594 147.160156 499.808594 147 500.078125 C 146.363281 500.507812 147.105469 499.648438 147.902344 498.894531 C 148.699219 498.085938 149.601562 497.386719 149.070312 497.765625 L 149.601562 497.601562 C 149.390625 497.765625 148.964844 498.03125 148.539062 498.300781 C 148.113281 498.570312 147.636719 498.839844 147.371094 498.894531 C 147.425781 499.054688 146.839844 499.433594 146.363281 499.863281 L 146.148438 499.96875 C 145.671875 500.402344 144.929688 500.886719 145.40625 500.832031 C 146.945312 499.753906 146.628906 500.453125 146.363281 501.15625 C 146.097656 501.855469 145.886719 502.554688 147.320312 501.640625 C 146.628906 501.90625 146.679688 501.746094 147.054688 501.421875 C 147.265625 501.261719 147.53125 501.046875 147.796875 500.832031 C 148.113281 500.617188 148.433594 500.402344 148.753906 500.238281 C 148.964844 500.292969 149.601562 500.078125 150.609375 499.648438 C 151.40625 499.21875 151.035156 499.269531 151.140625 499.109375 C 151.621094 498.949219 152.574219 498.625 152.523438 498.839844 C 153.105469 498.355469 153.636719 498.464844 154.433594 498.085938 C 155.125 497.710938 154.328125 498.03125 154.804688 497.710938 C 155.335938 497.496094 156.027344 497.28125 156.609375 497.117188 C 156.929688 497.011719 157.25 496.957031 157.515625 496.847656 L 158.308594 496.6875 C 158.683594 496.742188 159.796875 496.796875 159.105469 497.28125 C 157.460938 497.710938 159.636719 496.6875 157.886719 497.226562 C 158.308594 497.332031 157.9375 497.441406 157.460938 497.601562 C 156.984375 497.765625 156.34375 497.980469 156.238281 498.195312 C 156.824219 498.195312 157.9375 497.816406 158.839844 497.546875 L 158.628906 497.546875 C 159.425781 497.226562 161.070312 496.796875 161.972656 496.796875 C 161.816406 496.957031 162.1875 497.011719 161.601562 497.171875 C 161.972656 497.0625 162.347656 497.0625 162.71875 496.957031 C 162.878906 496.902344 162.984375 496.796875 162.664062 496.847656 C 163.195312 496.632812 163.726562 496.578125 164.152344 496.632812 C 164.203125 496.6875 165.691406 496.3125 167.179688 495.988281 C 168.664062 495.664062 170.152344 495.449219 170.046875 495.503906 C 170.894531 495.449219 171.109375 495.71875 171.902344 495.503906 C 171.902344 495.449219 171.425781 495.503906 170.683594 495.558594 C 169.9375 495.613281 168.984375 495.773438 168.082031 495.878906 C 167.179688 496.042969 166.277344 496.203125 165.691406 496.3125 C 165.105469 496.472656 164.839844 496.527344 165.105469 496.472656 C 165.480469 496.472656 167.761719 495.988281 170.152344 495.71875 C 172.488281 495.449219 174.824219 495.34375 175.089844 495.503906 C 175.726562 495.503906 176.472656 495.503906 176.3125 495.34375 C 177.375 495.503906 175.992188 495.613281 176.734375 495.828125 C 176.734375 495.828125 176.683594 495.71875 176.894531 495.773438 L 177.585938 495.988281 C 179.390625 495.878906 181.726562 496.417969 183.425781 496.363281 C 182.894531 496.472656 182.3125 496.6875 181.195312 496.6875 L 181.039062 496.578125 C 180.878906 496.578125 179.976562 496.578125 179.976562 496.742188 C 180.984375 496.957031 181.886719 497.011719 183.003906 497.011719 C 183.214844 497.0625 183.425781 497.171875 183.585938 497.226562 L 183.585938 497.171875 C 183.90625 497.332031 183.90625 497.332031 183.746094 497.386719 L 183.691406 497.386719 C 184.277344 497.871094 187.78125 497.710938 189.585938 498.300781 C 190.171875 498.355469 189.640625 498.25 190.328125 498.300781 C 192.1875 498.839844 193.515625 499.269531 195.480469 499.808594 C 196.171875 499.753906 196.222656 499.703125 195.480469 499.324219 L 196.96875 499.703125 C 195.480469 499.917969 199.675781 500.832031 198.03125 500.992188 C 198.453125 501.207031 199.355469 501.421875 200.207031 501.585938 C 200.3125 501.476562 200.523438 501.316406 201.585938 501.53125 C 203.019531 502.070312 202.703125 501.90625 203.871094 502.339844 C 204.136719 502.554688 203.660156 502.554688 203.660156 502.660156 C 205.621094 502.875 205.25 503.414062 207.058594 503.792969 C 208.171875 504.007812 210.457031 504.492188 210.5625 504.222656 C 212.046875 504.597656 212.046875 504.8125 211.835938 504.976562 Z M 211.835938 504.976562 "/>
</g>
<path style=" stroke:none;fill-rule:nonzero;fill:rgb(87.838745%,67.449951%,41.178894%);fill-opacity:1;" d="M 414.339844 372.0625 C 416.414062 370.652344 418.785156 369.675781 421.449219 369.128906 C 431.933594 367.070312 442.09375 373.835938 444.167969 384.328125 C 449.804688 412.152344 438.265625 440.378906 414.828125 456.308594 C 391.390625 472.238281 360.898438 472.578125 337.011719 457.15625 C 328.019531 451.367188 325.410156 439.339844 331.246094 430.4375 C 337.019531 421.445312 349.035156 418.851562 357.941406 424.699219 C 368.6875 431.578125 382.496094 431.433594 393.046875 424.265625 C 403.597656 417.09375 408.730469 404.363281 406.289062 391.84375 C 404.675781 384.074219 408.109375 376.292969 414.339844 372.0625 Z M 414.339844 372.0625 "/>
<path style=" stroke:none;fill-rule:nonzero;fill:rgb(100%,100%,100%);fill-opacity:1;" d="M 435.457031 369.15625 C 433.441406 368.179688 431.109375 367.410156 428.757812 367.113281 C 426.410156 366.816406 424.097656 366.929688 421.925781 367.375 C 421.878906 367.390625 421.832031 367.386719 421.785156 367.402344 C 413.605469 369.25 406.894531 376.007812 405.675781 384.742188 L 402.113281 412.882812 L 443.179688 418.082031 L 446.742188 389.960938 C 447.746094 381.132812 443.019531 372.925781 435.457031 369.15625 Z M 435.457031 369.15625 "/>
<path style=" stroke:none;fill-rule:nonzero;fill:rgb(51.759338%,32.548523%,19.999695%);fill-opacity:1;" d="M 345.140625 471.390625 C 343.875 471.390625 342.609375 471.421875 341.351562 471.480469 C 340.089844 471.539062 338.835938 471.625 337.59375 471.742188 C 336.351562 471.859375 335.125 472.003906 333.914062 472.175781 C 332.699219 472.351562 331.507812 472.550781 330.339844 472.777344 C 329.167969 473.007812 328.023438 473.261719 326.90625 473.542969 C 325.789062 473.824219 324.703125 474.132812 323.652344 474.464844 C 322.597656 474.796875 321.582031 475.152344 320.601562 475.527344 C 319.621094 475.90625 318.683594 476.308594 317.789062 476.730469 C 316.894531 477.152344 316.042969 477.59375 315.238281 478.054688 C 314.4375 478.515625 313.683594 478.996094 312.980469 479.492188 C 312.273438 479.988281 311.625 480.5 311.027344 481.027344 C 310.429688 481.554688 309.890625 482.09375 309.402344 482.644531 C 308.917969 483.195312 308.492188 483.757812 308.125 484.328125 C 307.757812 484.898438 307.449219 485.476562 307.203125 486.0625 C 306.957031 486.648438 306.769531 487.238281 306.644531 487.832031 C 306.523438 488.425781 306.460938 489.023438 306.460938 489.617188 C 306.460938 490.214844 306.523438 490.8125 306.644531 491.40625 C 306.769531 492 306.957031 492.589844 307.203125 493.175781 C 307.449219 493.761719 307.757812 494.339844 308.125 494.910156 C 308.492188 495.480469 308.917969 496.042969 309.402344 496.59375 C 309.890625 497.144531 310.429688 497.683594 311.027344 498.210938 C 311.625 498.738281 312.273438 499.25 312.980469 499.746094 C 313.683594 500.242188 314.4375 500.722656 315.238281 501.183594 C 316.042969 501.644531 316.894531 502.085938 317.789062 502.507812 C 318.683594 502.929688 319.621094 503.332031 320.601562 503.710938 C 321.582031 504.085938 322.597656 504.441406 323.652344 504.773438 C 324.703125 505.105469 325.789062 505.414062 326.90625 505.695312 C 328.023438 505.976562 329.167969 506.230469 330.339844 506.460938 C 331.507812 506.6875 332.699219 506.886719 333.914062 507.0625 C 335.125 507.234375 336.351562 507.378906 337.59375 507.496094 C 338.835938 507.613281 340.089844 507.699219 341.351562 507.757812 C 342.609375 507.816406 343.875 507.847656 345.140625 507.847656 C 346.410156 507.847656 347.671875 507.816406 348.933594 507.757812 C 350.195312 507.699219 351.445312 507.613281 352.6875 507.496094 C 353.929688 507.378906 355.15625 507.234375 356.371094 507.0625 C 357.582031 506.886719 358.773438 506.6875 359.945312 506.460938 C 361.113281 506.230469 362.257812 505.976562 363.375 505.695312 C 364.492188 505.414062 365.578125 505.105469 366.632812 504.773438 C 367.683594 504.441406 368.703125 504.085938 369.679688 503.710938 C 370.660156 503.332031 371.597656 502.929688 372.492188 502.507812 C 373.390625 502.085938 374.238281 501.644531 375.042969 501.183594 C 375.847656 500.722656 376.601562 500.242188 377.304688 499.746094 C 378.007812 499.25 378.660156 498.738281 379.253906 498.210938 C 379.851562 497.683594 380.394531 497.144531 380.878906 496.59375 C 381.363281 496.042969 381.789062 495.480469 382.15625 494.910156 C 382.523438 494.339844 382.832031 493.761719 383.078125 493.175781 C 383.328125 492.589844 383.511719 492 383.636719 491.40625 C 383.761719 490.8125 383.824219 490.214844 383.824219 489.617188 C 383.824219 489.023438 383.761719 488.425781 383.636719 487.832031 C 383.511719 487.238281 383.328125 486.648438 383.078125 486.0625 C 382.832031 485.476562 382.523438 484.898438 382.15625 484.328125 C 381.789062 483.757812 381.363281 483.195312 380.878906 482.644531 C 380.394531 482.09375 379.851562 481.554688 379.253906 481.027344 C 378.660156 480.5 378.007812 479.988281 377.304688 479.492188 C 376.601562 478.996094 375.847656 478.515625 375.042969 478.054688 C 374.238281 477.59375 373.390625 477.152344 372.492188 476.730469 C 371.597656 476.308594 370.660156 475.90625 369.679688 475.527344 C 368.703125 475.152344 367.683594 474.796875 366.632812 474.464844 C 365.578125 474.132812 364.492188 473.824219 363.375 473.542969 C 362.257812 473.261719 361.113281 473.007812 359.945312 472.777344 C 358.773438 472.550781 357.582031 472.351562 356.371094 472.175781 C 355.15625 472.003906 353.929688 471.859375 352.6875 471.742188 C 351.445312 471.625 350.195312 471.539062 348.933594 471.480469 C 347.671875 471.421875 346.410156 471.390625 345.140625 471.390625 Z M 345.140625 471.390625 "/>
<path style=" stroke:none;fill-rule:nonzero;fill:rgb(55.288696%,33.329773%,14.118958%);fill-opacity:1;" d="M 240.070312 433.40625 C 239.371094 435.257812 238.289062 436.960938 236.820312 438.519531 C 230.996094 444.605469 221.378906 444.855469 215.28125 439.035156 C 199.027344 423.664062 193.660156 400.238281 201.535156 379.339844 C 209.410156 358.445312 228.90625 344.390625 251.292969 343.492188 C 259.710938 343.144531 266.851562 349.710938 267.132812 358.09375 C 267.488281 366.507812 260.921875 373.632812 252.53125 373.902344 C 242.484375 374.34375 233.652344 380.703125 230.105469 390.109375 C 226.5625 399.515625 229.03125 410.046875 236.285156 417.007812 C 240.847656 421.28125 242.160156 427.855469 240.070312 433.40625 Z M 240.070312 433.40625 "/>
<path style=" stroke:none;fill-rule:nonzero;fill:rgb(87.838745%,67.449951%,41.178894%);fill-opacity:1;" d="M 303.890625 330.609375 C 302.636719 330.609375 301.382812 330.636719 300.128906 330.699219 C 298.875 330.761719 297.625 330.855469 296.375 330.976562 C 295.125 331.101562 293.882812 331.253906 292.640625 331.4375 C 291.398438 331.621094 290.164062 331.835938 288.933594 332.082031 C 287.703125 332.324219 286.476562 332.601562 285.261719 332.90625 C 284.042969 333.210938 282.835938 333.546875 281.632812 333.910156 C 280.433594 334.273438 279.242188 334.667969 278.0625 335.089844 C 276.878906 335.511719 275.710938 335.964844 274.550781 336.445312 C 273.390625 336.925781 272.242188 337.433594 271.109375 337.96875 C 269.976562 338.503906 268.855469 339.070312 267.75 339.660156 C 266.640625 340.253906 265.550781 340.871094 264.472656 341.515625 C 263.398438 342.160156 262.335938 342.832031 261.292969 343.527344 C 260.25 344.226562 259.226562 344.949219 258.21875 345.695312 C 257.210938 346.445312 256.222656 347.214844 255.25 348.011719 C 254.28125 348.808594 253.332031 349.625 252.402344 350.46875 C 251.472656 351.3125 250.5625 352.175781 249.675781 353.0625 C 248.789062 353.953125 247.921875 354.859375 247.082031 355.789062 C 246.238281 356.71875 245.417969 357.667969 244.621094 358.640625 C 243.828125 359.609375 243.054688 360.597656 242.308594 361.605469 C 241.558594 362.613281 240.839844 363.640625 240.140625 364.683594 C 239.445312 365.726562 238.773438 366.785156 238.128906 367.863281 C 237.484375 368.9375 236.863281 370.03125 236.273438 371.136719 C 235.679688 372.242188 235.117188 373.363281 234.582031 374.496094 C 234.042969 375.632812 233.535156 376.777344 233.054688 377.9375 C 232.574219 379.097656 232.125 380.269531 231.703125 381.449219 C 231.277344 382.628906 230.886719 383.820312 230.519531 385.023438 C 230.15625 386.222656 229.820312 387.433594 229.515625 388.648438 C 229.210938 389.867188 228.9375 391.089844 228.691406 392.320312 C 228.449219 393.550781 228.234375 394.789062 228.050781 396.027344 C 227.863281 397.269531 227.710938 398.515625 227.589844 399.765625 C 227.464844 401.011719 227.375 402.261719 227.3125 403.515625 C 227.25 404.769531 227.21875 406.023438 227.21875 407.277344 C 227.21875 408.535156 227.25 409.789062 227.3125 411.039062 C 227.375 412.292969 227.464844 413.546875 227.589844 414.792969 C 227.710938 416.042969 227.863281 417.289062 228.050781 418.527344 C 228.234375 419.769531 228.449219 421.007812 228.691406 422.238281 C 228.9375 423.46875 229.210938 424.691406 229.515625 425.910156 C 229.820312 427.125 230.15625 428.335938 230.519531 429.535156 C 230.886719 430.734375 231.277344 431.925781 231.703125 433.109375 C 232.125 434.289062 232.574219 435.460938 233.054688 436.621094 C 233.535156 437.777344 234.042969 438.925781 234.582031 440.058594 C 235.117188 441.195312 235.679688 442.316406 236.273438 443.421875 C 236.863281 444.527344 237.484375 445.621094 238.128906 446.695312 C 238.773438 447.773438 239.445312 448.832031 240.140625 449.875 C 240.839844 450.917969 241.558594 451.945312 242.308594 452.953125 C 243.054688 453.960938 243.828125 454.949219 244.621094 455.917969 C 245.417969 456.886719 246.238281 457.839844 247.082031 458.769531 C 247.921875 459.699219 248.789062 460.605469 249.675781 461.492188 C 250.5625 462.382812 251.472656 463.246094 252.402344 464.089844 C 253.332031 464.929688 254.28125 465.75 255.25 466.546875 C 256.222656 467.34375 257.210938 468.113281 258.21875 468.863281 C 259.226562 469.609375 260.25 470.332031 261.292969 471.027344 C 262.335938 471.726562 263.398438 472.398438 264.472656 473.042969 C 265.550781 473.6875 266.640625 474.304688 267.75 474.898438 C 268.855469 475.488281 269.976562 476.050781 271.109375 476.589844 C 272.242188 477.125 273.390625 477.632812 274.550781 478.113281 C 275.710938 478.59375 276.878906 479.046875 278.0625 479.46875 C 279.242188 479.890625 280.433594 480.285156 281.632812 480.648438 C 282.835938 481.011719 284.042969 481.347656 285.261719 481.652344 C 286.476562 481.957031 287.703125 482.230469 288.933594 482.476562 C 290.164062 482.722656 291.398438 482.9375 292.640625 483.121094 C 293.882812 483.304688 295.125 483.457031 296.375 483.582031 C 297.625 483.703125 298.875 483.796875 300.128906 483.859375 C 301.382812 483.917969 302.636719 483.949219 303.890625 483.949219 C 305.144531 483.949219 306.398438 483.917969 307.652344 483.859375 C 308.90625 483.796875 310.15625 483.703125 311.40625 483.582031 C 312.65625 483.457031 313.898438 483.304688 315.140625 483.121094 C 316.382812 482.9375 317.617188 482.722656 318.847656 482.476562 C 320.078125 482.230469 321.304688 481.957031 322.519531 481.652344 C 323.738281 481.347656 324.945312 481.011719 326.148438 480.648438 C 327.347656 480.285156 328.539062 479.890625 329.71875 479.46875 C 330.902344 479.046875 332.070312 478.59375 333.230469 478.113281 C 334.390625 477.632812 335.539062 477.125 336.671875 476.589844 C 337.804688 476.050781 338.925781 475.488281 340.03125 474.898438 C 341.140625 474.304688 342.230469 473.6875 343.308594 473.042969 C 344.382812 472.398438 345.445312 471.726562 346.488281 471.027344 C 347.53125 470.332031 348.554688 469.609375 349.5625 468.863281 C 350.570312 468.113281 351.558594 467.34375 352.53125 466.546875 C 353.5 465.75 354.449219 464.929688 355.378906 464.089844 C 356.308594 463.246094 357.21875 462.382812 358.105469 461.492188 C 358.992188 460.605469 359.859375 459.699219 360.699219 458.769531 C 361.542969 457.839844 362.363281 456.886719 363.160156 455.917969 C 363.953125 454.949219 364.726562 453.960938 365.472656 452.953125 C 366.222656 451.945312 366.941406 450.917969 367.640625 449.875 C 368.335938 448.832031 369.007812 447.773438 369.652344 446.695312 C 370.296875 445.621094 370.917969 444.527344 371.507812 443.421875 C 372.101562 442.316406 372.664062 441.195312 373.199219 440.058594 C 373.738281 438.925781 374.246094 437.777344 374.726562 436.621094 C 375.207031 435.460938 375.65625 434.289062 376.078125 433.109375 C 376.503906 431.925781 376.894531 430.734375 377.261719 429.535156 C 377.625 428.335938 377.960938 427.125 378.265625 425.910156 C 378.570312 424.691406 378.84375 423.46875 379.089844 422.238281 C 379.332031 421.007812 379.546875 419.769531 379.730469 418.527344 C 379.917969 417.289062 380.070312 416.042969 380.191406 414.792969 C 380.316406 413.546875 380.40625 412.292969 380.46875 411.039062 C 380.53125 409.789062 380.5625 408.535156 380.5625 407.277344 C 380.5625 406.023438 380.53125 404.769531 380.46875 403.515625 C 380.40625 402.261719 380.316406 401.011719 380.191406 399.765625 C 380.070312 398.515625 379.917969 397.269531 379.730469 396.027344 C 379.546875 394.789062 379.332031 393.550781 379.089844 392.320312 C 378.84375 391.089844 378.570312 389.867188 378.265625 388.648438 C 377.960938 387.433594 377.625 386.222656 377.261719 385.023438 C 376.894531 383.820312 376.503906 382.628906 376.078125 381.449219 C 375.65625 380.269531 375.207031 379.097656 374.726562 377.9375 C 374.246094 376.777344 373.738281 375.632812 373.199219 374.496094 C 372.664062 373.363281 372.101562 372.242188 371.507812 371.136719 C 370.917969 370.03125 370.296875 368.9375 369.652344 367.863281 C 369.007812 366.785156 368.335938 365.726562 367.640625 364.683594 C 366.941406 363.640625 366.222656 362.613281 365.472656 361.605469 C 364.726562 360.597656 363.953125 359.609375 363.160156 358.640625 C 362.363281 357.667969 361.542969 356.71875 360.699219 355.789062 C 359.859375 354.859375 358.992188 353.953125 358.105469 353.0625 C 357.21875 352.175781 356.308594 351.3125 355.378906 350.46875 C 354.449219 349.625 353.5 348.808594 352.53125 348.011719 C 351.558594 347.214844 350.570312 346.445312 349.5625 345.695312 C 348.554688 344.949219 347.53125 344.226562 346.488281 343.527344 C 345.445312 342.832031 344.382812 342.160156 343.308594 341.515625 C 342.230469 340.871094 341.140625 340.253906 340.03125 339.660156 C 338.925781 339.070312 337.804688 338.503906 336.671875 337.96875 C 335.539062 337.433594 334.390625 336.925781 333.230469 336.445312 C 332.070312 335.964844 330.902344 335.511719 329.71875 335.089844 C 328.539062 334.667969 327.347656 334.273438 326.148438 333.910156 C 324.945312 333.546875 323.738281 333.210938 322.519531 332.90625 C 321.304688 332.601562 320.078125 332.324219 318.847656 332.082031 C 317.617188 331.835938 316.382812 331.621094 315.140625 331.4375 C 313.898438 331.253906 312.65625 331.101562 311.40625 330.976562 C 310.15625 330.855469 308.90625 330.761719 307.652344 330.699219 C 306.398438 330.636719 305.144531 330.609375 303.890625 330.609375 Z M 303.890625 330.609375 "/>
<path style=" stroke:none;fill-rule:nonzero;fill:rgb(55.288696%,33.329773%,14.118958%);fill-opacity:1;" d="M 336.054688 357.8125 C 335.96875 355.835938 336.289062 353.84375 337.027344 351.828125 C 339.980469 343.945312 348.722656 339.921875 356.617188 342.871094 C 377.613281 350.59375 391.78125 370.007812 392.777344 392.316406 C 393.773438 414.625 381.394531 435.222656 361.171875 444.871094 C 353.570312 448.507812 344.421875 445.289062 340.863281 437.695312 C 337.21875 430.101562 340.445312 420.96875 348.050781 417.410156 C 357.109375 413.046875 362.722656 403.722656 362.273438 393.679688 C 361.824219 383.632812 355.40625 374.929688 345.996094 371.390625 C 340.117188 369.261719 336.320312 363.738281 336.054688 357.8125 Z M 336.054688 357.8125 "/>
<path style=" stroke:none;fill-rule:nonzero;fill:rgb(87.838745%,67.449951%,41.178894%);fill-opacity:1;" d="M 316.761719 169.507812 L 378.40625 144.960938 L 368.84375 210.617188 Z M 316.761719 169.507812 "/>
<path style=" stroke:none;fill-rule:nonzero;fill:rgb(87.838745%,67.449951%,41.178894%);fill-opacity:1;" d="M 226.554688 204.191406 L 223.367188 137.917969 L 282.355469 168.292969 Z M 226.554688 204.191406 "/>
<path style=" stroke:none;fill-rule:nonzero;fill:rgb(55.288696%,33.329773%,14.118958%);fill-opacity:1;" d="M 297.636719 167.75 C 296.226562 167.75 294.816406 167.785156 293.410156 167.855469 C 292 167.925781 290.59375 168.027344 289.191406 168.167969 C 287.785156 168.304688 286.386719 168.476562 284.992188 168.683594 C 283.597656 168.890625 282.207031 169.132812 280.824219 169.40625 C 279.441406 169.683594 278.066406 169.992188 276.695312 170.335938 C 275.328125 170.675781 273.96875 171.054688 272.621094 171.460938 C 271.269531 171.871094 269.929688 172.3125 268.601562 172.789062 C 267.273438 173.265625 265.960938 173.773438 264.65625 174.3125 C 263.351562 174.851562 262.0625 175.421875 260.789062 176.027344 C 259.515625 176.628906 258.253906 177.261719 257.011719 177.929688 C 255.765625 178.59375 254.539062 179.289062 253.328125 180.011719 C 252.121094 180.738281 250.929688 181.492188 249.753906 182.277344 C 248.582031 183.058594 247.429688 183.871094 246.296875 184.710938 C 245.164062 185.550781 244.050781 186.417969 242.960938 187.3125 C 241.871094 188.210938 240.804688 189.128906 239.757812 190.078125 C 238.714844 191.023438 237.691406 191.996094 236.695312 192.996094 C 235.699219 193.992188 234.726562 195.011719 233.777344 196.058594 C 232.832031 197.101562 231.910156 198.171875 231.015625 199.261719 C 230.121094 200.351562 229.253906 201.464844 228.414062 202.597656 C 227.574219 203.730469 226.761719 204.882812 225.976562 206.054688 C 225.195312 207.226562 224.4375 208.417969 223.714844 209.628906 C 222.988281 210.839844 222.292969 212.066406 221.628906 213.308594 C 220.964844 214.554688 220.332031 215.8125 219.726562 217.085938 C 219.125 218.363281 218.550781 219.652344 218.011719 220.953125 C 217.472656 222.257812 216.964844 223.574219 216.492188 224.902344 C 216.015625 226.230469 215.574219 227.570312 215.164062 228.917969 C 214.753906 230.269531 214.378906 231.628906 214.035156 232.996094 C 213.691406 234.363281 213.382812 235.738281 213.109375 237.121094 C 212.832031 238.507812 212.59375 239.894531 212.386719 241.289062 C 212.179688 242.6875 212.003906 244.085938 211.867188 245.488281 C 211.730469 246.894531 211.625 248.300781 211.554688 249.707031 C 211.488281 251.117188 211.453125 252.527344 211.453125 253.9375 C 211.453125 255.347656 211.488281 256.757812 211.554688 258.164062 C 211.625 259.574219 211.730469 260.980469 211.867188 262.382812 C 212.003906 263.789062 212.179688 265.1875 212.386719 266.582031 C 212.59375 267.976562 212.832031 269.367188 213.109375 270.75 C 213.382812 272.132812 213.691406 273.507812 214.035156 274.878906 C 214.378906 276.246094 214.753906 277.605469 215.164062 278.953125 C 215.574219 280.304688 216.015625 281.644531 216.492188 282.972656 C 216.964844 284.300781 217.472656 285.613281 218.011719 286.917969 C 218.550781 288.222656 219.125 289.511719 219.726562 290.785156 C 220.332031 292.0625 220.964844 293.320312 221.628906 294.5625 C 222.292969 295.808594 222.988281 297.035156 223.714844 298.246094 C 224.4375 299.453125 225.195312 300.644531 225.976562 301.820312 C 226.761719 302.992188 227.574219 304.144531 228.414062 305.277344 C 229.253906 306.410156 230.121094 307.523438 231.015625 308.613281 C 231.910156 309.703125 232.832031 310.769531 233.777344 311.816406 C 234.726562 312.859375 235.699219 313.882812 236.695312 314.878906 C 237.691406 315.875 238.714844 316.847656 239.757812 317.796875 C 240.804688 318.742188 241.871094 319.664062 242.960938 320.558594 C 244.050781 321.453125 245.164062 322.320312 246.296875 323.160156 C 247.429688 324 248.582031 324.8125 249.753906 325.597656 C 250.929688 326.378906 252.121094 327.136719 253.328125 327.859375 C 254.539062 328.585938 255.765625 329.28125 257.011719 329.945312 C 258.253906 330.609375 259.515625 331.242188 260.789062 331.847656 C 262.0625 332.449219 263.351562 333.023438 264.65625 333.5625 C 265.960938 334.101562 267.273438 334.609375 268.601562 335.082031 C 269.929688 335.558594 271.269531 336 272.621094 336.410156 C 273.96875 336.820312 275.328125 337.195312 276.695312 337.539062 C 278.066406 337.882812 279.441406 338.191406 280.824219 338.464844 C 282.207031 338.742188 283.597656 338.980469 284.992188 339.1875 C 286.386719 339.394531 287.785156 339.570312 289.191406 339.707031 C 290.59375 339.84375 292 339.949219 293.410156 340.019531 C 294.816406 340.085938 296.226562 340.121094 297.636719 340.121094 C 299.046875 340.121094 300.457031 340.085938 301.867188 340.019531 C 303.277344 339.949219 304.683594 339.84375 306.085938 339.707031 C 307.488281 339.570312 308.886719 339.394531 310.285156 339.1875 C 311.679688 338.980469 313.066406 338.742188 314.453125 338.464844 C 315.835938 338.191406 317.210938 337.882812 318.578125 337.539062 C 319.949219 337.195312 321.304688 336.820312 322.65625 336.410156 C 324.003906 336 325.34375 335.558594 326.671875 335.082031 C 328 334.609375 329.316406 334.101562 330.621094 333.5625 C 331.921875 333.023438 333.210938 332.449219 334.488281 331.847656 C 335.761719 331.242188 337.019531 330.609375 338.265625 329.945312 C 339.507812 329.28125 340.734375 328.585938 341.945312 327.859375 C 343.15625 327.136719 344.347656 326.378906 345.519531 325.597656 C 346.691406 324.8125 347.84375 324 348.976562 323.160156 C 350.109375 322.320312 351.222656 321.453125 352.3125 320.558594 C 353.402344 319.664062 354.472656 318.742188 355.515625 317.796875 C 356.5625 316.847656 357.582031 315.875 358.578125 314.878906 C 359.578125 313.882812 360.550781 312.859375 361.496094 311.816406 C 362.445312 310.769531 363.363281 309.703125 364.261719 308.613281 C 365.15625 307.523438 366.023438 306.410156 366.863281 305.277344 C 367.703125 304.144531 368.515625 302.992188 369.296875 301.820312 C 370.082031 300.644531 370.835938 299.453125 371.5625 298.246094 C 372.285156 297.035156 372.980469 295.808594 373.644531 294.5625 C 374.3125 293.320312 374.945312 292.0625 375.546875 290.785156 C 376.152344 289.511719 376.722656 288.222656 377.261719 286.917969 C 377.800781 285.613281 378.308594 284.300781 378.785156 282.972656 C 379.261719 281.644531 379.703125 280.304688 380.113281 278.953125 C 380.519531 277.605469 380.898438 276.246094 381.242188 274.878906 C 381.582031 273.507812 381.890625 272.132812 382.167969 270.75 C 382.441406 269.367188 382.683594 267.976562 382.890625 266.582031 C 383.097656 265.1875 383.269531 263.789062 383.40625 262.382812 C 383.546875 260.980469 383.648438 259.574219 383.71875 258.164062 C 383.789062 256.757812 383.824219 255.347656 383.824219 253.9375 C 383.824219 252.527344 383.789062 251.117188 383.71875 249.707031 C 383.648438 248.300781 383.546875 246.894531 383.40625 245.488281 C 383.269531 244.085938 383.097656 242.6875 382.890625 241.289062 C 382.683594 239.894531 382.441406 238.507812 382.167969 237.121094 C 381.890625 235.738281 381.582031 234.363281 381.238281 232.996094 C 380.898438 231.628906 380.519531 230.269531 380.113281 228.917969 C 379.703125 227.570312 379.261719 226.230469 378.785156 224.902344 C 378.308594 223.574219 377.800781 222.257812 377.261719 220.953125 C 376.722656 219.652344 376.152344 218.363281 375.546875 217.085938 C 374.945312 215.8125 374.3125 214.554688 373.644531 213.308594 C 372.980469 212.066406 372.285156 210.839844 371.5625 209.628906 C 370.835938 208.417969 370.082031 207.226562 369.296875 206.054688 C 368.515625 204.882812 367.703125 203.730469 366.863281 202.597656 C 366.023438 201.464844 365.15625 200.351562 364.261719 199.261719 C 363.363281 198.171875 362.445312 197.101562 361.496094 196.058594 C 360.550781 195.011719 359.578125 193.992188 358.578125 192.996094 C 357.582031 191.996094 356.5625 191.023438 355.515625 190.078125 C 354.472656 189.128906 353.402344 188.210938 352.3125 187.3125 C 351.222656 186.417969 350.109375 185.550781 348.976562 184.710938 C 347.84375 183.871094 346.691406 183.058594 345.519531 182.277344 C 344.347656 181.492188 343.15625 180.738281 341.945312 180.011719 C 340.734375 179.289062 339.507812 178.59375 338.265625 177.929688 C 337.019531 177.261719 335.761719 176.628906 334.488281 176.027344 C 333.210938 175.421875 331.921875 174.851562 330.621094 174.3125 C 329.316406 173.773438 328 173.265625 326.671875 172.789062 C 325.34375 172.3125 324.003906 171.871094 322.65625 171.460938 C 321.304688 171.054688 319.949219 170.675781 318.578125 170.335938 C 317.210938 169.992188 315.835938 169.683594 314.453125 169.40625 C 313.066406 169.132812 311.679688 168.890625 310.285156 168.683594 C 308.886719 168.476562 307.488281 168.304688 306.085938 168.167969 C 304.683594 168.027344 303.277344 167.925781 301.867188 167.855469 C 300.457031 167.785156 299.046875 167.75 297.636719 167.75 Z M 297.636719 167.75 "/>
<path style=" stroke:none;fill-rule:nonzero;fill:rgb(55.288696%,33.329773%,14.118958%);fill-opacity:1;" d="M 259.015625 392.675781 C 263.25 388.742188 270.671875 388.292969 275.402344 391.78125 C 280.535156 395.566406 281.730469 402.339844 282.527344 408.464844 C 284.667969 404.28125 286.8125 399.898438 290.546875 396.8125 C 294.28125 393.773438 300.160156 392.476562 304.195312 395.167969 C 308.03125 397.707031 308.828125 402.738281 308.628906 407.171875 C 307.832031 424.457031 295.628906 440.644531 278.992188 447.617188 C 276.101562 440.09375 272.117188 432.921875 267.234375 426.347656 C 263.347656 421.21875 258.867188 416.335938 256.425781 410.457031 C 253.984375 404.582031 254.234375 397.109375 259.015625 392.675781 Z M 259.015625 392.675781 "/>
<path style=" stroke:none;fill-rule:nonzero;fill:rgb(55.288696%,33.329773%,14.118958%);fill-opacity:1;" d="M 327.40625 176.4375 L 364.773438 161.558594 L 358.976562 201.359375 Z M 327.40625 176.4375 "/>
<path style=" stroke:none;fill-rule:nonzero;fill:rgb(55.288696%,33.329773%,14.118958%);fill-opacity:1;" d="M 237.777344 195.871094 L 236.882812 155.335938 L 272.433594 174.828125 Z M 237.777344 195.871094 "/>
<path style=" stroke:none;fill-rule:nonzero;fill:rgb(55.288696%,33.329773%,14.118958%);fill-opacity:1;" d="M 436.429688 365.984375 C 434.414062 365.007812 432.082031 364.242188 429.730469 363.941406 C 427.382812 363.644531 425.070312 363.757812 422.898438 364.203125 C 422.851562 364.21875 422.804688 364.214844 422.757812 364.230469 C 414.574219 366.078125 407.863281 372.835938 406.648438 381.546875 L 404.050781 402.078125 L 445.121094 407.277344 L 447.71875 386.761719 C 448.71875 377.964844 443.992188 369.757812 436.429688 365.984375 Z M 436.429688 365.984375 "/>
<path style=" stroke:none;fill-rule:nonzero;fill:rgb(21.179199%,14.898682%,12.548828%);fill-opacity:1;" d="M 279.199219 234.414062 C 279.199219 238.984375 275.492188 242.683594 270.925781 242.683594 C 266.363281 242.683594 262.660156 238.984375 262.660156 234.414062 C 262.660156 229.847656 266.363281 226.148438 270.925781 226.148438 C 275.492188 226.148438 279.199219 229.847656 279.199219 234.414062 "/>
<path style=" stroke:none;fill-rule:nonzero;fill:rgb(12.548828%,8.239746%,6.269836%);fill-opacity:1;" d="M 279.199219 234.414062 C 279.199219 238.984375 275.492188 242.683594 270.925781 242.683594 C 266.363281 242.683594 262.660156 238.984375 262.660156 234.414062 C 262.660156 229.847656 266.363281 226.148438 270.925781 226.148438 C 275.492188 226.148438 279.199219 229.847656 279.199219 234.414062 "/>
<path style=" stroke:none;fill-rule:nonzero;fill:rgb(16.859436%,12.159729%,9.799194%);fill-opacity:1;" d="M 270.925781 241.652344 C 267.464844 241.652344 264.570312 239.207031 263.863281 235.949219 C 263.863281 235.949219 266.921875 234.078125 270.726562 234.078125 C 272.957031 234.078125 275.441406 234.722656 277.722656 236.757812 C 276.742188 239.597656 274.09375 241.652344 270.925781 241.652344 "/>
<path style=" stroke:none;fill-rule:nonzero;fill:rgb(100%,100%,100%);fill-opacity:1;" d="M 271.101562 231.933594 C 271.101562 233.070312 270.179688 233.992188 269.035156 233.992188 C 267.90625 233.992188 266.984375 233.070312 266.984375 231.933594 C 266.984375 230.796875 267.90625 229.878906 269.035156 229.878906 C 270.179688 229.878906 271.101562 230.796875 271.101562 231.933594 "/>
<path style=" stroke:none;fill-rule:nonzero;fill:rgb(100%,100%,100%);fill-opacity:1;" d="M 268.035156 228.828125 C 268.035156 229.40625 267.558594 229.878906 266.984375 229.878906 C 266.40625 229.878906 265.9375 229.40625 265.9375 228.828125 C 265.9375 228.25 266.40625 227.78125 266.984375 227.78125 C 267.558594 227.78125 268.035156 228.25 268.035156 228.828125 "/>
<path style=" stroke:none;fill-rule:nonzero;fill:rgb(21.179199%,14.898682%,12.548828%);fill-opacity:1;" d="M 324.074219 234.414062 C 324.074219 238.984375 327.777344 242.683594 332.339844 242.683594 C 336.910156 242.683594 340.613281 238.984375 340.613281 234.414062 C 340.613281 229.847656 336.910156 226.148438 332.339844 226.148438 C 327.777344 226.148438 324.074219 229.847656 324.074219 234.414062 "/>
<path style=" stroke:none;fill-rule:nonzero;fill:rgb(12.548828%,8.239746%,6.269836%);fill-opacity:1;" d="M 324.074219 234.414062 C 324.074219 238.984375 327.777344 242.683594 332.339844 242.683594 C 336.910156 242.683594 340.613281 238.984375 340.613281 234.414062 C 340.613281 229.847656 336.910156 226.148438 332.339844 226.148438 C 327.777344 226.148438 324.074219 229.847656 324.074219 234.414062 "/>
<path style=" stroke:none;fill-rule:nonzero;fill:rgb(16.859436%,12.159729%,9.799194%);fill-opacity:1;" d="M 332.339844 241.652344 C 329.175781 241.652344 326.53125 239.597656 325.554688 236.757812 C 327.832031 234.722656 330.316406 234.078125 332.546875 234.078125 C 336.347656 234.078125 339.402344 235.949219 339.402344 235.949219 C 338.703125 239.207031 335.8125 241.652344 332.339844 241.652344 "/>
<path style=" stroke:none;fill-rule:nonzero;fill:rgb(100%,100%,100%);fill-opacity:1;" d="M 332.171875 231.933594 C 332.171875 233.070312 333.089844 233.992188 334.230469 233.992188 C 335.363281 233.992188 336.285156 233.070312 336.285156 231.933594 C 336.285156 230.796875 335.363281 229.878906 334.230469 229.878906 C 333.089844 229.878906 332.171875 230.796875 332.171875 231.933594 "/>
<path style=" stroke:none;fill-rule:nonzero;fill:rgb(100%,100%,100%);fill-opacity:1;" d="M 335.242188 228.828125 C 335.242188 229.40625 335.707031 229.878906 336.285156 229.878906 C 336.871094 229.878906 337.335938 229.40625 337.335938 228.828125 C 337.335938 228.25 336.871094 227.78125 336.285156 227.78125 C 335.707031 227.78125 335.242188 228.25 335.242188 228.828125 "/>
<path style=" stroke:none;fill-rule:nonzero;fill:rgb(94.898987%,37.249756%,41.178894%);fill-opacity:1;" d="M 305.21875 249.8125 L 298.058594 249.8125 C 298.058594 249.8125 295.042969 250.125 295.421875 252.808594 C 295.421875 252.808594 296.453125 259.007812 301.636719 259.527344 C 306.816406 259.007812 307.855469 252.808594 307.855469 252.808594 C 308.230469 250.125 305.21875 249.8125 305.21875 249.8125 "/>
<path style=" stroke:none;fill-rule:nonzero;fill:rgb(74.119568%,73.728943%,73.728943%);fill-opacity:1;" d="M 301.636719 259.527344 C 296.453125 259.007812 295.421875 252.808594 295.421875 252.808594 C 295.394531 252.652344 295.382812 252.503906 295.382812 252.367188 C 295.382812 252.503906 295.394531 252.652344 295.421875 252.808594 C 295.421875 252.808594 296.453125 259.007812 301.636719 259.527344 C 301.824219 259.507812 302.015625 259.484375 302.195312 259.445312 C 302.015625 259.484375 301.824219 259.507812 301.636719 259.527344 M 302.203125 259.445312 L 302.207031 259.445312 L 302.203125 259.445312 "/>
<path style=" stroke:none;fill-rule:nonzero;fill:rgb(70.588684%,27.449036%,29.40979%);fill-opacity:1;" d="M 301.636719 259.527344 C 296.453125 259.007812 295.421875 252.808594 295.421875 252.808594 C 295.394531 252.652344 295.382812 252.503906 295.382812 252.367188 C 295.382812 250.085938 298.058594 249.8125 298.058594 249.8125 L 298.835938 249.8125 C 297.601562 252.328125 300.238281 256.316406 303.015625 256.898438 C 303.363281 256.972656 303.699219 257.007812 304.019531 257.007812 C 304.960938 257.007812 305.800781 256.71875 306.535156 256.230469 C 305.683594 257.636719 304.335938 259.03125 302.222656 259.441406 C 302.214844 259.441406 302.214844 259.445312 302.207031 259.445312 L 302.195312 259.445312 C 302.015625 259.484375 301.824219 259.507812 301.636719 259.527344 "/>
<path style=" stroke:none;fill-rule:nonzero;fill:rgb(95.689392%,43.919373%,46.269226%);fill-opacity:1;" d="M 303.714844 255.324219 C 301.972656 255.324219 299.796875 252.121094 301.699219 251.371094 L 301.703125 251.363281 L 304.652344 251.363281 C 304.652344 251.363281 306.152344 251.535156 306.492188 252.710938 C 306.164062 253.921875 305.320312 254.960938 304.039062 255.285156 C 303.929688 255.3125 303.824219 255.324219 303.714844 255.324219 "/>
<path style=" stroke:none;fill-rule:nonzero;fill:rgb(12.548828%,8.239746%,6.269836%);fill-opacity:1;" d="M 302.464844 259.117188 L 302.3125 263.675781 L 302.238281 265.957031 L 302.203125 267.09375 C 302.203125 267.476562 302.152344 267.941406 302.058594 268.339844 C 301.863281 269.152344 301.480469 269.929688 300.925781 270.5625 C 300.375 271.195312 299.65625 271.664062 298.910156 271.960938 C 297.382812 272.550781 295.777344 272.5625 294.253906 272.410156 L 294.285156 272.410156 C 293.949219 272.417969 293.640625 272.386719 293.324219 272.34375 C 293.011719 272.300781 292.695312 272.238281 292.394531 272.160156 C 291.785156 271.996094 291.191406 271.746094 290.660156 271.402344 C 290.132812 271.0625 289.683594 270.597656 289.355469 270.0625 C 289.027344 269.523438 288.84375 268.921875 288.757812 268.308594 C 288.886719 268.914062 289.105469 269.5 289.457031 269.996094 C 289.804688 270.496094 290.265625 270.902344 290.789062 271.195312 C 291.3125 271.492188 291.890625 271.691406 292.476562 271.800781 C 292.769531 271.863281 293.066406 271.90625 293.371094 271.921875 C 293.664062 271.941406 293.972656 271.953125 294.257812 271.929688 L 294.289062 271.929688 C 295.777344 271.984375 297.304688 271.855469 298.597656 271.25 C 299.238281 270.945312 299.808594 270.519531 300.214844 269.972656 C 300.632812 269.4375 300.902344 268.792969 301.015625 268.121094 C 301.070312 267.765625 301.097656 267.476562 301.070312 267.09375 L 301.035156 265.957031 L 300.957031 263.675781 L 300.8125 259.117188 L 302.464844 259.117188 "/>
<path style=" stroke:none;fill-rule:nonzero;fill:rgb(12.548828%,8.239746%,6.269836%);fill-opacity:1;" d="M 302.628906 259.117188 L 302.480469 263.675781 L 302.410156 265.957031 L 302.367188 267.09375 C 302.347656 267.476562 302.367188 267.765625 302.421875 268.121094 C 302.535156 268.789062 302.804688 269.4375 303.222656 269.972656 C 303.632812 270.519531 304.203125 270.945312 304.839844 271.25 C 306.136719 271.855469 307.660156 271.984375 309.148438 271.929688 L 309.179688 271.929688 C 309.464844 271.953125 309.773438 271.941406 310.066406 271.921875 C 310.363281 271.90625 310.667969 271.863281 310.960938 271.800781 C 311.550781 271.691406 312.128906 271.492188 312.644531 271.195312 C 313.171875 270.902344 313.632812 270.496094 313.980469 269.996094 C 314.332031 269.5 314.550781 268.914062 314.679688 268.308594 C 314.59375 268.921875 314.414062 269.523438 314.085938 270.0625 C 313.757812 270.597656 313.304688 271.0625 312.777344 271.402344 C 312.242188 271.746094 311.652344 271.996094 311.046875 272.160156 C 310.734375 272.238281 310.425781 272.300781 310.117188 272.34375 C 309.800781 272.386719 309.488281 272.417969 309.15625 272.410156 L 309.1875 272.410156 C 307.660156 272.5625 306.054688 272.550781 304.535156 271.960938 C 303.78125 271.664062 303.066406 271.195312 302.511719 270.554688 C 301.960938 269.929688 301.578125 269.152344 301.382812 268.339844 C 301.285156 267.941406 301.230469 267.476562 301.234375 267.09375 L 301.199219 265.957031 L 301.125 263.675781 L 300.976562 259.117188 L 302.628906 259.117188 "/>
<path style=" stroke:none;fill-rule:nonzero;fill:rgb(96.469116%,54.119873%,43.919373%);fill-opacity:1;" d="M 267.71875 254.535156 C 267.71875 258.796875 262.132812 262.25 255.246094 262.25 C 248.359375 262.25 242.777344 258.796875 242.777344 254.535156 C 242.777344 250.269531 248.359375 246.816406 255.246094 246.816406 C 262.132812 246.816406 267.71875 250.269531 267.71875 254.535156 "/>
<path style=" stroke:none;fill-rule:nonzero;fill:rgb(96.469116%,54.119873%,43.919373%);fill-opacity:1;" d="M 360.492188 254.535156 C 360.492188 258.796875 354.90625 262.25 348.027344 262.25 C 341.136719 262.25 335.558594 258.796875 335.558594 254.535156 C 335.558594 250.269531 341.136719 246.816406 348.027344 246.816406 C 354.90625 246.816406 360.492188 250.269531 360.492188 254.535156 "/>
<path style=" stroke:none;fill-rule:nonzero;fill:rgb(12.548828%,8.239746%,6.269836%);fill-opacity:1;" d="M 342.808594 263.972656 L 406.902344 237.890625 C 407.109375 237.804688 407.210938 237.5625 407.125 237.347656 C 407.042969 237.136719 406.796875 237.03125 406.585938 237.125 L 342.496094 263.207031 C 342.285156 263.292969 342.1875 263.535156 342.273438 263.75 C 342.359375 263.957031 342.601562 264.058594 342.808594 263.972656 "/>
<path style=" stroke:none;fill-rule:nonzero;fill:rgb(12.548828%,8.239746%,6.269836%);fill-opacity:1;" d="M 345.410156 266.066406 L 410.851562 251.441406 C 411.070312 251.386719 411.210938 251.167969 411.164062 250.949219 C 411.113281 250.726562 410.894531 250.585938 410.671875 250.632812 L 345.226562 265.257812 C 345.007812 265.3125 344.867188 265.53125 344.917969 265.753906 C 344.964844 265.972656 345.183594 266.113281 345.410156 266.066406 "/>
<path style=" stroke:none;fill-rule:nonzero;fill:rgb(12.548828%,8.239746%,6.269836%);fill-opacity:1;" d="M 342.671875 269.011719 L 413.125 265.613281 C 413.355469 265.601562 413.53125 265.410156 413.519531 265.183594 C 413.507812 264.953125 413.3125 264.777344 413.089844 264.789062 L 342.632812 268.1875 C 342.40625 268.199219 342.230469 268.394531 342.242188 268.617188 C 342.253906 268.847656 342.449219 269.023438 342.671875 269.011719 "/>
<path style=" stroke:none;fill-rule:nonzero;fill:rgb(12.548828%,8.239746%,6.269836%);fill-opacity:1;" d="M 263.488281 263.207031 L 199.394531 237.125 C 199.183594 237.03125 198.941406 237.136719 198.855469 237.347656 C 198.769531 237.5625 198.871094 237.804688 199.082031 237.890625 L 263.171875 263.972656 C 263.382812 264.058594 263.628906 263.957031 263.710938 263.75 C 263.796875 263.535156 263.699219 263.292969 263.488281 263.207031 "/>
<path style=" stroke:none;fill-rule:nonzero;fill:rgb(12.548828%,8.239746%,6.269836%);fill-opacity:1;" d="M 260.753906 265.257812 L 195.316406 250.632812 C 195.089844 250.585938 194.871094 250.726562 194.820312 250.949219 C 194.769531 251.167969 194.910156 251.386719 195.136719 251.441406 L 260.574219 266.066406 C 260.796875 266.113281 261.023438 265.972656 261.070312 265.753906 C 261.121094 265.53125 260.980469 265.3125 260.753906 265.257812 "/>
<path style=" stroke:none;fill-rule:nonzero;fill:rgb(12.548828%,8.239746%,6.269836%);fill-opacity:1;" d="M 263.347656 268.1875 L 192.894531 264.789062 C 192.671875 264.777344 192.476562 264.953125 192.464844 265.183594 C 192.453125 265.410156 192.632812 265.601562 192.859375 265.613281 L 263.3125 269.011719 C 263.539062 269.023438 263.730469 268.847656 263.742188 268.617188 C 263.757812 268.394531 263.578125 268.199219 263.347656 268.1875 "/>
</g>
</svg>
