<?xml version="1.0" encoding="UTF-8"?>
<svg xmlns="http://www.w3.org/2000/svg" xmlns:xlink="http://www.w3.org/1999/xlink" width="595.5pt" height="842.249979pt" viewBox="0 0 595.5 842.249979" version="1.2">
<defs>
<clipPath id="clip1">
  <path d="M 149 337.019531 L 446 337.019531 L 446 363 L 149 363 Z M 149 337.019531 "/>
</clipPath>
</defs>
<g id="surface1">
<path style=" stroke:none;fill-rule:nonzero;fill:rgb(51.759338%,32.548523%,19.999695%);fill-opacity:1;" d="M 258.957031 318.792969 C 257.6875 318.792969 256.425781 318.820312 255.164062 318.878906 C 253.902344 318.9375 252.652344 319.027344 251.410156 319.140625 C 250.167969 319.257812 248.941406 319.402344 247.726562 319.578125 C 246.515625 319.75 245.324219 319.953125 244.152344 320.179688 C 242.984375 320.40625 241.839844 320.664062 240.722656 320.945312 C 239.605469 321.226562 238.519531 321.53125 237.464844 321.863281 C 236.414062 322.195312 235.394531 322.550781 234.417969 322.929688 C 233.4375 323.308594 232.5 323.707031 231.605469 324.128906 C 230.707031 324.554688 229.859375 324.996094 229.054688 325.457031 C 228.25 325.917969 227.496094 326.398438 226.792969 326.894531 C 226.089844 327.390625 225.4375 327.902344 224.84375 328.425781 C 224.246094 328.953125 223.703125 329.492188 223.21875 330.042969 C 222.734375 330.597656 222.308594 331.15625 221.941406 331.726562 C 221.574219 332.300781 221.265625 332.878906 221.019531 333.464844 C 220.769531 334.050781 220.585938 334.640625 220.460938 335.234375 C 220.335938 335.828125 220.273438 336.421875 220.273438 337.019531 C 220.273438 337.617188 220.335938 338.210938 220.460938 338.804688 C 220.585938 339.398438 220.769531 339.988281 221.019531 340.574219 C 221.265625 341.160156 221.574219 341.738281 221.941406 342.3125 C 222.308594 342.882812 222.734375 343.441406 223.21875 343.996094 C 223.703125 344.546875 224.246094 345.085938 224.84375 345.613281 C 225.4375 346.136719 226.089844 346.648438 226.792969 347.144531 C 227.496094 347.640625 228.25 348.121094 229.054688 348.582031 C 229.859375 349.042969 230.707031 349.484375 231.605469 349.910156 C 232.5 350.332031 233.4375 350.730469 234.417969 351.109375 C 235.394531 351.488281 236.414062 351.84375 237.464844 352.175781 C 238.519531 352.507812 239.605469 352.8125 240.722656 353.09375 C 241.839844 353.375 242.984375 353.632812 244.152344 353.859375 C 245.324219 354.085938 246.515625 354.289062 247.726562 354.460938 C 248.941406 354.636719 250.167969 354.78125 251.410156 354.898438 C 252.652344 355.011719 253.902344 355.101562 255.164062 355.160156 C 256.425781 355.21875 257.6875 355.246094 258.957031 355.246094 C 260.222656 355.246094 261.488281 355.21875 262.746094 355.160156 C 264.007812 355.101562 265.261719 355.011719 266.503906 354.898438 C 267.746094 354.78125 268.972656 354.636719 270.183594 354.460938 C 271.398438 354.289062 272.589844 354.085938 273.757812 353.859375 C 274.929688 353.632812 276.074219 353.375 277.191406 353.09375 C 278.308594 352.8125 279.394531 352.507812 280.445312 352.175781 C 281.5 351.84375 282.515625 351.488281 283.496094 351.109375 C 284.476562 350.730469 285.414062 350.332031 286.308594 349.910156 C 287.203125 349.484375 288.054688 349.042969 288.859375 348.582031 C 289.660156 348.121094 290.414062 347.640625 291.117188 347.144531 C 291.824219 346.648438 292.472656 346.136719 293.070312 345.613281 C 293.667969 345.085938 294.207031 344.546875 294.691406 343.996094 C 295.179688 343.441406 295.605469 342.882812 295.972656 342.3125 C 296.339844 341.738281 296.648438 341.160156 296.894531 340.574219 C 297.140625 339.988281 297.328125 339.398438 297.453125 338.804688 C 297.574219 338.210938 297.636719 337.617188 297.636719 337.019531 C 297.636719 336.421875 297.574219 335.828125 297.453125 335.234375 C 297.328125 334.640625 297.140625 334.050781 296.894531 333.464844 C 296.648438 332.878906 296.339844 332.300781 295.972656 331.726562 C 295.605469 331.15625 295.179688 330.597656 294.691406 330.042969 C 294.207031 329.492188 293.667969 328.953125 293.070312 328.425781 C 292.472656 327.902344 291.824219 327.390625 291.117188 326.894531 C 290.414062 326.398438 289.660156 325.917969 288.859375 325.457031 C 288.054688 324.996094 287.203125 324.554688 286.308594 324.128906 C 285.414062 323.707031 284.476562 323.308594 283.496094 322.929688 C 282.515625 322.550781 281.5 322.195312 280.445312 321.863281 C 279.394531 321.53125 278.308594 321.226562 277.191406 320.945312 C 276.074219 320.664062 274.929688 320.40625 273.757812 320.179688 C 272.589844 319.953125 271.398438 319.75 270.183594 319.578125 C 268.972656 319.402344 267.746094 319.257812 266.503906 319.140625 C 265.261719 319.027344 264.007812 318.9375 262.746094 318.878906 C 261.488281 318.820312 260.222656 318.792969 258.957031 318.792969 Z M 258.957031 318.792969 "/>
<g clip-path="url(#clip1)" clip-rule="nonzero">
<path style=" stroke:none;fill-rule:nonzero;fill:rgb(72.938538%,72.549438%,72.158813%);fill-opacity:1;" d="M 215.859375 356.199219 L 217.082031 356.46875 C 213.046875 355.714844 208.851562 354.582031 204.816406 353.507812 C 209.117188 355.066406 213.949219 356.683594 218.675781 357.707031 C 219.84375 357.972656 221.011719 358.1875 222.179688 358.351562 C 223.347656 358.511719 224.464844 358.671875 225.523438 358.726562 C 227.703125 358.835938 229.773438 358.835938 231.632812 358.511719 C 231.949219 359.105469 234.339844 359.859375 236.675781 360.34375 C 239.011719 360.828125 241.296875 361.148438 241.402344 360.988281 C 243.3125 360.933594 245.171875 360.933594 247.136719 360.878906 L 243.207031 360.878906 L 247.136719 360.878906 C 259.296875 360.773438 272.359375 360.878906 285.953125 359.75 C 289.722656 359.480469 296.734375 358.566406 303.636719 357.328125 C 310.539062 356.089844 317.390625 354.582031 321.160156 353.832031 C 322.222656 353.613281 323.335938 353.398438 324.398438 353.128906 C 322.59375 353.453125 322.59375 353.453125 320.734375 353.832031 C 325.195312 352.429688 329.230469 351.140625 333.105469 350.007812 C 332.363281 350.007812 332.203125 349.902344 330.503906 350.0625 L 332.574219 349.6875 C 334.328125 348.773438 338.578125 347.804688 340.488281 347.15625 C 340.117188 347.480469 341.710938 347.210938 343.089844 346.941406 L 342.507812 346.886719 C 345.160156 346.351562 347.976562 345.757812 350.789062 345.164062 C 352.171875 344.898438 353.550781 344.628906 354.878906 344.414062 C 355.515625 344.304688 356.207031 344.195312 356.84375 344.089844 C 357.480469 343.980469 358.0625 343.929688 358.703125 343.820312 C 359.339844 343.714844 359.871094 343.765625 360.1875 343.820312 L 362.472656 343.390625 L 364.753906 343.066406 C 364.4375 343.445312 368.578125 342.960938 366.402344 343.390625 C 368.101562 343.011719 369.800781 342.90625 371.5 342.746094 C 372.347656 342.691406 373.199219 342.582031 373.996094 342.527344 C 374.84375 342.476562 375.640625 342.421875 376.4375 342.3125 C 379.359375 342.207031 382.277344 342.421875 385.25 342.527344 C 386.738281 342.691406 388.226562 342.796875 389.710938 342.960938 L 390.828125 343.066406 L 391.941406 343.230469 C 392.6875 343.335938 393.429688 343.445312 394.171875 343.550781 C 400.121094 344.519531 406.066406 346.082031 411.855469 348.019531 L 411.644531 347.804688 C 415.679688 349.148438 419.394531 350.0625 423.960938 352.59375 C 427.464844 353.832031 432.246094 356.253906 433.839844 356.414062 C 437.609375 358.511719 439.253906 359.15625 442.917969 361.3125 C 442.175781 360.394531 446.582031 363.25 444.988281 361.847656 C 442.867188 359.910156 442.546875 360.125 440.6875 358.566406 L 440.6875 358.726562 C 436.070312 355.5 431.289062 352.484375 426.296875 349.792969 C 421.308594 347.050781 416.101562 344.628906 410.6875 342.636719 C 407.023438 341.507812 403.148438 340.324219 399.164062 339.355469 C 397.144531 338.921875 395.183594 338.4375 393.164062 338.167969 L 391.675781 337.902344 L 390.136719 337.738281 C 389.128906 337.632812 388.121094 337.523438 387.109375 337.417969 C 386.578125 337.363281 386.046875 337.308594 385.464844 337.253906 C 384.933594 337.253906 384.347656 337.199219 383.816406 337.199219 C 382.703125 337.148438 381.640625 337.148438 380.527344 337.09375 C 379.410156 337.039062 378.296875 337.09375 377.234375 337.148438 C 376.117188 337.199219 375.054688 337.199219 373.941406 337.253906 C 371.765625 337.417969 369.695312 337.578125 367.621094 337.792969 C 365.605469 338.0625 363.691406 338.332031 361.835938 338.601562 C 360.136719 338.921875 358.859375 338.816406 357.320312 338.871094 C 350.683594 340 342.347656 341.613281 335.070312 343.550781 C 335.230469 343.496094 335.335938 343.496094 335.445312 343.496094 C 331.566406 344.464844 328.59375 344.84375 324.875 345.8125 C 324.929688 345.917969 324.34375 346.027344 324.078125 346.1875 C 323.707031 346.027344 318.238281 347.640625 312.664062 349.203125 C 309.902344 350.007812 307.085938 350.710938 304.910156 351.300781 C 302.734375 351.839844 301.140625 352.160156 300.769531 352.160156 C 300.398438 352.269531 299.972656 352.378906 299.546875 352.429688 C 291.53125 353.777344 283.140625 353.882812 276.289062 354.476562 C 274.800781 354.800781 273.15625 355.121094 271.882812 355.390625 C 270.660156 355.230469 270.449219 355.660156 268.960938 355.660156 C 267.050781 355.285156 265.5625 355.175781 264.820312 355.230469 C 264.023438 355.285156 263.96875 355.445312 264.980469 355.605469 C 264.183594 355.660156 263.4375 355.714844 262.695312 355.714844 L 260.414062 355.714844 C 258.925781 355.714844 257.4375 355.714844 256.058594 355.660156 C 254.785156 355.714844 253.507812 355.714844 252.234375 355.769531 C 251.121094 355.820312 250.535156 355.605469 250.003906 355.390625 C 248.625 355.390625 248.144531 355.335938 247.613281 355.230469 C 247.085938 355.175781 246.605469 355.066406 245.121094 354.90625 C 244.800781 354.691406 242.941406 354.746094 241.082031 354.691406 C 239.226562 354.636719 237.367188 354.636719 236.941406 354.582031 L 237.417969 354.582031 C 235.71875 354.367188 234.394531 353.992188 233.011719 353.667969 C 231.632812 353.347656 230.304688 352.96875 228.660156 352.699219 C 226.375 352.324219 224.089844 351.839844 221.808594 351.460938 C 220.640625 351.246094 219.472656 350.976562 218.355469 350.761719 C 217.1875 350.546875 216.019531 350.332031 214.90625 350.0625 C 210.285156 349.039062 205.71875 347.964844 201.523438 346.941406 C 201.363281 347.265625 203.382812 347.320312 203.382812 347.75 C 198.445312 346.511719 193.398438 345.003906 188.195312 344.25 C 187.292969 344.035156 186.125 343.714844 185.699219 343.550781 C 184 343.230469 184.691406 343.605469 183.46875 343.445312 L 183.308594 343.121094 C 181.453125 343.230469 180.65625 342.582031 178.902344 342.691406 C 178.796875 342.796875 178.160156 342.796875 177.574219 342.796875 C 177.523438 342.476562 175.664062 342.796875 175.769531 342.527344 C 175.398438 342.527344 175.132812 342.582031 174.65625 342.527344 C 174.496094 342.582031 173.910156 342.636719 173.167969 342.796875 C 172.796875 342.851562 172.371094 342.960938 171.945312 343.066406 C 171.523438 343.175781 171.042969 343.28125 170.621094 343.390625 C 168.8125 343.820312 167.007812 344.359375 166.691406 344.519531 L 166.371094 344.519531 C 165.414062 344.679688 165.042969 345.003906 165.574219 344.949219 C 165.148438 345.003906 164.777344 345.113281 164.355469 345.21875 L 164.511719 345.164062 L 163.292969 345.433594 C 163.078125 345.433594 162.761719 345.382812 163.078125 345.164062 C 162.441406 345.433594 161.699219 345.703125 161.007812 345.867188 C 162.917969 345.488281 165.308594 345.21875 167.328125 345.21875 C 166.957031 345.328125 166.371094 345.433594 165.789062 345.542969 C 165.203125 345.597656 164.617188 345.757812 164.195312 345.867188 C 163.929688 345.867188 163.609375 345.917969 163.183594 345.917969 C 162.8125 345.972656 162.390625 346.027344 161.910156 346.132812 C 161.007812 346.242188 160.050781 346.511719 159.203125 346.726562 C 158.832031 346.835938 158.726562 347.320312 157.875 347.480469 C 157.398438 347.425781 156.972656 347.804688 156.230469 347.964844 C 156.917969 347.480469 157.714844 347.265625 158.511719 346.996094 C 158.300781 346.78125 156.546875 347.535156 155.910156 347.75 C 155.804688 347.855469 155.328125 348.070312 154.796875 348.289062 C 154.265625 348.554688 153.679688 348.824219 153.253906 349.09375 C 153.519531 348.664062 152.40625 349.308594 151.820312 349.523438 C 151.238281 349.472656 150.917969 349.792969 151.183594 349.742188 C 151.183594 349.902344 151.769531 349.632812 152.300781 349.363281 C 152.832031 349.09375 153.308594 348.933594 152.9375 349.257812 C 152.617188 349.257812 151.503906 350.007812 150.867188 350.386719 C 150.917969 350.546875 151.34375 350.226562 151.023438 350.601562 C 150.335938 351.03125 149.75 351.675781 149.273438 351.785156 C 149.378906 351.675781 149.644531 351.515625 149.855469 351.355469 C 149.644531 351.515625 149.804688 351.300781 150.121094 350.976562 C 150.28125 350.816406 150.496094 350.601562 150.761719 350.386719 C 151.023438 350.171875 151.289062 349.957031 151.554688 349.6875 C 152.617188 348.71875 153.734375 347.910156 153.148438 348.289062 C 153.253906 348.289062 152.988281 348.503906 152.566406 348.824219 C 152.140625 349.203125 151.554688 349.6875 150.972656 350.117188 C 149.855469 351.085938 148.847656 352.109375 149.113281 351.894531 C 149.699219 351.625 148.902344 352.378906 149.484375 352.054688 L 149.964844 351.460938 C 150.761719 351.03125 151.183594 351.03125 151.023438 351.300781 C 150.386719 351.730469 151.132812 350.871094 151.929688 350.117188 C 152.722656 349.308594 153.628906 348.609375 153.097656 348.988281 L 153.628906 348.824219 C 153.414062 348.988281 152.988281 349.257812 152.566406 349.523438 C 152.140625 349.792969 151.664062 350.0625 151.398438 350.117188 C 151.449219 350.277344 150.867188 350.65625 150.386719 351.085938 L 150.175781 351.191406 C 149.699219 351.625 148.953125 352.109375 149.433594 352.054688 C 150.972656 350.976562 150.652344 351.675781 150.386719 352.378906 C 150.121094 353.078125 149.910156 353.777344 151.34375 352.863281 C 150.652344 353.128906 150.707031 352.96875 151.078125 352.644531 C 151.289062 352.484375 151.554688 352.269531 151.820312 352.054688 C 152.140625 351.839844 152.460938 351.625 152.777344 351.460938 C 152.988281 351.515625 153.628906 351.300781 154.636719 350.871094 C 155.433594 350.441406 155.0625 350.492188 155.167969 350.332031 C 155.644531 350.171875 156.601562 349.847656 156.546875 350.0625 C 157.132812 349.578125 157.664062 349.6875 158.460938 349.308594 C 159.148438 348.933594 158.351562 349.257812 158.832031 348.933594 C 159.363281 348.71875 160.050781 348.503906 160.636719 348.339844 C 160.957031 348.234375 161.273438 348.179688 161.539062 348.070312 L 162.335938 347.910156 C 162.707031 347.964844 163.824219 348.019531 163.132812 348.503906 C 161.484375 348.933594 163.664062 347.910156 161.910156 348.449219 C 162.335938 348.554688 161.964844 348.664062 161.484375 348.824219 C 161.007812 348.988281 160.371094 349.203125 160.265625 349.417969 C 160.847656 349.417969 161.964844 349.039062 162.867188 348.773438 L 162.65625 348.773438 C 163.449219 348.449219 165.097656 348.019531 166 348.019531 C 165.839844 348.179688 166.210938 348.234375 165.628906 348.394531 C 166 348.289062 166.371094 348.289062 166.742188 348.179688 C 166.902344 348.125 167.007812 348.019531 166.691406 348.070312 C 167.222656 347.855469 167.753906 347.804688 168.175781 347.855469 C 168.230469 347.910156 169.714844 347.535156 171.203125 347.210938 C 172.691406 346.886719 174.175781 346.671875 174.070312 346.726562 C 174.921875 346.671875 175.132812 346.941406 175.929688 346.726562 C 175.929688 346.671875 175.453125 346.726562 174.707031 346.78125 C 173.964844 346.835938 173.007812 346.996094 172.105469 347.101562 C 171.203125 347.265625 170.300781 347.425781 169.714844 347.535156 C 169.132812 347.695312 168.867188 347.75 169.132812 347.695312 C 169.503906 347.695312 171.789062 347.210938 174.175781 346.941406 C 176.511719 346.671875 178.851562 346.566406 179.117188 346.726562 C 179.753906 346.726562 180.496094 346.726562 180.335938 346.566406 C 181.398438 346.726562 180.019531 346.835938 180.761719 347.050781 C 180.761719 347.050781 180.707031 346.941406 180.921875 346.996094 L 181.609375 347.210938 C 183.417969 347.101562 185.753906 347.640625 187.453125 347.585938 C 186.921875 347.695312 186.335938 347.910156 185.222656 347.910156 L 185.0625 347.804688 C 184.902344 347.804688 184 347.804688 184 347.964844 C 185.007812 348.179688 185.914062 348.234375 187.027344 348.234375 C 187.238281 348.289062 187.453125 348.394531 187.613281 348.449219 L 187.613281 348.394531 C 187.929688 348.554688 187.929688 348.554688 187.769531 348.609375 L 187.71875 348.609375 C 188.300781 349.09375 191.804688 348.933594 193.613281 349.523438 C 194.195312 349.578125 193.664062 349.472656 194.355469 349.523438 C 196.214844 350.0625 197.542969 350.492188 199.507812 351.03125 C 200.195312 350.976562 200.25 350.925781 199.507812 350.546875 L 200.992188 350.925781 C 199.507812 351.140625 203.699219 352.054688 202.054688 352.214844 C 202.480469 352.429688 203.382812 352.644531 204.230469 352.808594 C 204.339844 352.699219 204.550781 352.539062 205.613281 352.753906 C 207.046875 353.292969 206.726562 353.128906 207.894531 353.5625 C 208.160156 353.777344 207.683594 353.777344 207.683594 353.882812 C 209.648438 354.097656 209.277344 354.636719 211.082031 355.015625 C 212.195312 355.230469 214.480469 355.714844 214.585938 355.445312 C 216.074219 355.820312 216.074219 356.035156 215.859375 356.199219 Z M 215.859375 356.199219 "/>
</g>
<path style=" stroke:none;fill-rule:nonzero;fill:rgb(51.759338%,32.548523%,19.999695%);fill-opacity:1;" d="M 349.167969 322.613281 C 347.898438 322.613281 346.636719 322.644531 345.375 322.703125 C 344.113281 322.761719 342.863281 322.847656 341.621094 322.964844 C 340.378906 323.082031 339.148438 323.226562 337.9375 323.398438 C 336.726562 323.574219 335.535156 323.773438 334.363281 324.003906 C 333.195312 324.230469 332.050781 324.484375 330.933594 324.765625 C 329.816406 325.046875 328.730469 325.355469 327.675781 325.6875 C 326.621094 326.019531 325.605469 326.375 324.628906 326.753906 C 323.648438 327.128906 322.710938 327.53125 321.816406 327.953125 C 320.917969 328.375 320.070312 328.816406 319.265625 329.277344 C 318.460938 329.738281 317.707031 330.21875 317.003906 330.714844 C 316.300781 331.210938 315.648438 331.722656 315.050781 332.25 C 314.457031 332.777344 313.914062 333.316406 313.429688 333.867188 C 312.945312 334.417969 312.519531 334.980469 312.152344 335.550781 C 311.78125 336.121094 311.476562 336.699219 311.226562 337.285156 C 310.980469 337.871094 310.796875 338.460938 310.671875 339.054688 C 310.546875 339.648438 310.484375 340.246094 310.484375 340.84375 C 310.484375 341.4375 310.546875 342.035156 310.671875 342.628906 C 310.796875 343.222656 310.980469 343.8125 311.226562 344.398438 C 311.476562 344.984375 311.78125 345.5625 312.152344 346.132812 C 312.519531 346.703125 312.945312 347.265625 313.429688 347.816406 C 313.914062 348.367188 314.457031 348.90625 315.050781 349.433594 C 315.648438 349.960938 316.300781 350.472656 317.003906 350.96875 C 317.707031 351.464844 318.460938 351.945312 319.265625 352.40625 C 320.070312 352.867188 320.917969 353.308594 321.816406 353.730469 C 322.710938 354.152344 323.648438 354.554688 324.628906 354.933594 C 325.605469 355.3125 326.621094 355.664062 327.675781 355.996094 C 328.730469 356.328125 329.816406 356.636719 330.933594 356.917969 C 332.050781 357.199219 333.195312 357.453125 334.363281 357.683594 C 335.535156 357.910156 336.726562 358.109375 337.9375 358.285156 C 339.148438 358.457031 340.378906 358.601562 341.621094 358.71875 C 342.863281 358.835938 344.113281 358.921875 345.375 358.980469 C 346.636719 359.039062 347.898438 359.070312 349.167969 359.070312 C 350.433594 359.070312 351.699219 359.039062 352.957031 358.980469 C 354.21875 358.921875 355.46875 358.835938 356.714844 358.71875 C 357.957031 358.601562 359.183594 358.457031 360.394531 358.285156 C 361.609375 358.109375 362.800781 357.910156 363.96875 357.683594 C 365.140625 357.453125 366.285156 357.199219 367.402344 356.917969 C 368.519531 356.636719 369.605469 356.328125 370.65625 355.996094 C 371.710938 355.664062 372.726562 355.3125 373.707031 354.933594 C 374.683594 354.554688 375.621094 354.152344 376.519531 353.730469 C 377.414062 353.308594 378.265625 352.867188 379.066406 352.40625 C 379.871094 351.945312 380.625 351.464844 381.328125 350.96875 C 382.035156 350.472656 382.683594 349.960938 383.28125 349.433594 C 383.878906 348.90625 384.417969 348.367188 384.902344 347.816406 C 385.390625 347.265625 385.816406 346.703125 386.183594 346.132812 C 386.550781 345.5625 386.859375 344.984375 387.105469 344.398438 C 387.351562 343.8125 387.539062 343.222656 387.664062 342.628906 C 387.785156 342.035156 387.847656 341.4375 387.847656 340.84375 C 387.847656 340.246094 387.785156 339.648438 387.664062 339.054688 C 387.539062 338.460938 387.351562 337.871094 387.105469 337.285156 C 386.859375 336.699219 386.550781 336.121094 386.183594 335.550781 C 385.816406 334.980469 385.390625 334.417969 384.902344 333.867188 C 384.417969 333.316406 383.878906 332.777344 383.28125 332.25 C 382.683594 331.722656 382.035156 331.210938 381.328125 330.714844 C 380.625 330.21875 379.871094 329.738281 379.066406 329.277344 C 378.265625 328.816406 377.414062 328.375 376.519531 327.953125 C 375.621094 327.53125 374.683594 327.128906 373.707031 326.753906 C 372.726562 326.375 371.710938 326.019531 370.65625 325.6875 C 369.605469 325.355469 368.519531 325.046875 367.402344 324.765625 C 366.285156 324.484375 365.140625 324.230469 363.96875 324.003906 C 362.800781 323.773438 361.609375 323.574219 360.394531 323.398438 C 359.183594 323.226562 357.957031 323.082031 356.714844 322.964844 C 355.46875 322.847656 354.21875 322.761719 352.957031 322.703125 C 351.699219 322.644531 350.433594 322.613281 349.167969 322.613281 Z M 349.167969 322.613281 "/>
</g>
</svg>
