<?xml version="1.0" encoding="UTF-8"?>
<svg xmlns="http://www.w3.org/2000/svg" xmlns:xlink="http://www.w3.org/1999/xlink" width="595.5pt" height="842.249979pt" viewBox="0 0 595.5 842.249979" version="1.2">
<g id="surface1">
<path style=" stroke:none;fill-rule:nonzero;fill:rgb(55.288696%,33.329773%,14.118958%);fill-opacity:1;" d="M 297.636719 170.5625 C 296.226562 170.5625 294.816406 170.597656 293.410156 170.667969 C 292 170.738281 290.59375 170.839844 289.191406 170.976562 C 287.785156 171.117188 286.386719 171.289062 284.992188 171.496094 C 283.597656 171.703125 282.207031 171.945312 280.824219 172.21875 C 279.441406 172.496094 278.066406 172.804688 276.695312 173.144531 C 275.328125 173.488281 273.96875 173.863281 272.621094 174.273438 C 271.269531 174.683594 269.929688 175.125 268.601562 175.601562 C 267.273438 176.078125 265.960938 176.585938 264.65625 177.125 C 263.351562 177.664062 262.0625 178.234375 260.789062 178.839844 C 259.515625 179.441406 258.253906 180.074219 257.011719 180.738281 C 255.765625 181.40625 254.539062 182.101562 253.328125 182.824219 C 252.121094 183.550781 250.929688 184.304688 249.753906 185.089844 C 248.582031 185.871094 247.429688 186.683594 246.296875 187.523438 C 245.164062 188.363281 244.050781 189.230469 242.960938 190.125 C 241.871094 191.019531 240.804688 191.941406 239.757812 192.890625 C 238.714844 193.835938 237.691406 194.808594 236.695312 195.804688 C 235.699219 196.804688 234.726562 197.824219 233.777344 198.871094 C 232.832031 199.914062 231.910156 200.984375 231.015625 202.074219 C 230.121094 203.164062 229.253906 204.273438 228.414062 205.410156 C 227.574219 206.542969 226.761719 207.695312 225.976562 208.867188 C 225.195312 210.039062 224.4375 211.230469 223.714844 212.441406 C 222.988281 213.652344 222.292969 214.878906 221.628906 216.121094 C 220.964844 217.367188 220.332031 218.625 219.726562 219.898438 C 219.125 221.175781 218.550781 222.464844 218.011719 223.765625 C 217.472656 225.070312 216.964844 226.386719 216.492188 227.714844 C 216.015625 229.042969 215.574219 230.378906 215.164062 231.730469 C 214.753906 233.082031 214.378906 234.4375 214.035156 235.808594 C 213.691406 237.175781 213.382812 238.550781 213.109375 239.933594 C 212.832031 241.316406 212.59375 242.707031 212.386719 244.101562 C 212.179688 245.496094 212.003906 246.898438 211.867188 248.300781 C 211.730469 249.703125 211.625 251.109375 211.554688 252.519531 C 211.488281 253.929688 211.453125 255.339844 211.453125 256.75 C 211.453125 258.160156 211.488281 259.570312 211.554688 260.976562 C 211.625 262.386719 211.730469 263.792969 211.867188 265.195312 C 212.003906 266.601562 212.179688 268 212.386719 269.394531 C 212.59375 270.789062 212.832031 272.179688 213.109375 273.5625 C 213.382812 274.945312 213.691406 276.320312 214.035156 277.691406 C 214.378906 279.058594 214.753906 280.417969 215.164062 281.765625 C 215.574219 283.117188 216.015625 284.457031 216.492188 285.785156 C 216.964844 287.113281 217.472656 288.425781 218.011719 289.730469 C 218.550781 291.035156 219.125 292.324219 219.726562 293.597656 C 220.332031 294.871094 220.964844 296.132812 221.628906 297.375 C 222.292969 298.621094 222.988281 299.847656 223.714844 301.058594 C 224.4375 302.265625 225.195312 303.457031 225.976562 304.628906 C 226.761719 305.804688 227.574219 306.957031 228.414062 308.089844 C 229.253906 309.222656 230.121094 310.332031 231.015625 311.425781 C 231.910156 312.515625 232.832031 313.582031 233.777344 314.628906 C 234.726562 315.671875 235.699219 316.695312 236.695312 317.691406 C 237.691406 318.6875 238.714844 319.660156 239.757812 320.609375 C 240.804688 321.554688 241.871094 322.476562 242.960938 323.371094 C 244.050781 324.265625 245.164062 325.132812 246.296875 325.972656 C 247.429688 326.8125 248.582031 327.625 249.753906 328.410156 C 250.929688 329.191406 252.121094 329.945312 253.328125 330.671875 C 254.539062 331.398438 255.765625 332.09375 257.011719 332.757812 C 258.253906 333.421875 259.515625 334.054688 260.789062 334.660156 C 262.0625 335.261719 263.351562 335.832031 264.65625 336.375 C 265.960938 336.914062 267.273438 337.421875 268.601562 337.894531 C 269.929688 338.371094 271.269531 338.8125 272.621094 339.222656 C 273.96875 339.632812 275.328125 340.007812 276.695312 340.351562 C 278.066406 340.695312 279.441406 341.003906 280.824219 341.277344 C 282.207031 341.554688 283.597656 341.792969 284.992188 342 C 286.386719 342.207031 287.785156 342.378906 289.191406 342.519531 C 290.59375 342.65625 292 342.761719 293.410156 342.832031 C 294.816406 342.898438 296.226562 342.933594 297.636719 342.933594 C 299.046875 342.933594 300.457031 342.898438 301.867188 342.832031 C 303.277344 342.761719 304.683594 342.65625 306.085938 342.519531 C 307.488281 342.378906 308.886719 342.207031 310.285156 342 C 311.679688 341.792969 313.066406 341.554688 314.453125 341.277344 C 315.835938 341.003906 317.210938 340.695312 318.578125 340.351562 C 319.949219 340.007812 321.304688 339.632812 322.65625 339.222656 C 324.003906 338.8125 325.34375 338.371094 326.671875 337.894531 C 328 337.421875 329.316406 336.914062 330.621094 336.375 C 331.921875 335.832031 333.210938 335.261719 334.488281 334.660156 C 335.761719 334.054688 337.019531 333.421875 338.265625 332.757812 C 339.507812 332.09375 340.734375 331.398438 341.945312 330.671875 C 343.15625 329.945312 344.347656 329.191406 345.519531 328.410156 C 346.691406 327.625 347.84375 326.8125 348.976562 325.972656 C 350.109375 325.132812 351.222656 324.265625 352.3125 323.371094 C 353.402344 322.476562 354.472656 321.554688 355.515625 320.609375 C 356.5625 319.660156 357.582031 318.6875 358.578125 317.691406 C 359.578125 316.695312 360.550781 315.671875 361.496094 314.628906 C 362.445312 313.582031 363.363281 312.515625 364.261719 311.425781 C 365.15625 310.332031 366.023438 309.222656 366.863281 308.089844 C 367.703125 306.957031 368.515625 305.804688 369.296875 304.628906 C 370.082031 303.457031 370.835938 302.265625 371.5625 301.058594 C 372.285156 299.847656 372.980469 298.621094 373.644531 297.375 C 374.3125 296.132812 374.945312 294.871094 375.546875 293.597656 C 376.152344 292.324219 376.722656 291.035156 377.261719 289.730469 C 377.800781 288.425781 378.308594 287.113281 378.785156 285.785156 C 379.261719 284.457031 379.703125 283.117188 380.113281 281.765625 C 380.519531 280.417969 380.898438 279.058594 381.242188 277.691406 C 381.582031 276.320312 381.890625 274.945312 382.167969 273.5625 C 382.441406 272.179688 382.683594 270.789062 382.890625 269.394531 C 383.097656 268 383.269531 266.601562 383.40625 265.195312 C 383.546875 263.792969 383.648438 262.386719 383.71875 260.976562 C 383.789062 259.570312 383.824219 258.160156 383.824219 256.75 C 383.824219 255.339844 383.789062 253.929688 383.71875 252.519531 C 383.648438 251.109375 383.546875 249.703125 383.40625 248.300781 C 383.269531 246.898438 383.097656 245.496094 382.890625 244.101562 C 382.683594 242.707031 382.441406 241.316406 382.167969 239.933594 C 381.890625 238.550781 381.582031 237.175781 381.238281 235.808594 C 380.898438 234.4375 380.519531 233.082031 380.113281 231.730469 C 379.703125 230.378906 379.261719 229.042969 378.785156 227.714844 C 378.308594 226.386719 377.800781 225.070312 377.261719 223.765625 C 376.722656 222.464844 376.152344 221.175781 375.546875 219.898438 C 374.945312 218.625 374.3125 217.367188 373.644531 216.121094 C 372.980469 214.878906 372.285156 213.652344 371.5625 212.441406 C 370.835938 211.230469 370.082031 210.039062 369.296875 208.867188 C 368.515625 207.695312 367.703125 206.542969 366.863281 205.410156 C 366.023438 204.273438 365.15625 203.164062 364.261719 202.074219 C 363.363281 200.984375 362.445312 199.914062 361.496094 198.871094 C 360.550781 197.824219 359.578125 196.804688 358.578125 195.804688 C 357.582031 194.808594 356.5625 193.835938 355.515625 192.890625 C 354.472656 191.941406 353.402344 191.019531 352.3125 190.125 C 351.222656 189.230469 350.109375 188.363281 348.976562 187.523438 C 347.84375 186.683594 346.691406 185.871094 345.519531 185.089844 C 344.347656 184.304688 343.15625 183.550781 341.945312 182.824219 C 340.734375 182.101562 339.507812 181.40625 338.265625 180.738281 C 337.019531 180.074219 335.761719 179.441406 334.488281 178.839844 C 333.210938 178.234375 331.921875 177.664062 330.621094 177.125 C 329.316406 176.585938 328 176.078125 326.671875 175.601562 C 325.34375 175.125 324.003906 174.683594 322.65625 174.273438 C 321.304688 173.863281 319.949219 173.488281 318.578125 173.144531 C 317.210938 172.804688 315.835938 172.496094 314.453125 172.21875 C 313.066406 171.945312 311.679688 171.703125 310.285156 171.496094 C 308.886719 171.289062 307.488281 171.117188 306.085938 170.976562 C 304.683594 170.839844 303.277344 170.738281 301.867188 170.667969 C 300.457031 170.597656 299.046875 170.5625 297.636719 170.5625 Z M 297.636719 170.5625 "/>
</g>
</svg>
