<?xml version="1.0" encoding="UTF-8"?>
<svg xmlns="http://www.w3.org/2000/svg" xmlns:xlink="http://www.w3.org/1999/xlink" width="595.5pt" height="842.249979pt" viewBox="0 0 595.5 842.249979" version="1.2">
<g id="surface1">
<path style=" stroke:none;fill-rule:nonzero;fill:rgb(87.838745%,67.449951%,41.178894%);fill-opacity:1;" d="M 284.628906 264.722656 C 283.375 264.722656 282.121094 264.753906 280.867188 264.816406 C 279.613281 264.878906 278.363281 264.96875 277.113281 265.09375 C 275.863281 265.214844 274.621094 265.367188 273.378906 265.554688 C 272.136719 265.738281 270.902344 265.953125 269.671875 266.195312 C 268.441406 266.441406 267.214844 266.714844 266 267.019531 C 264.78125 267.324219 263.574219 267.660156 262.371094 268.023438 C 261.171875 268.390625 259.980469 268.78125 258.800781 269.207031 C 257.617188 269.628906 256.445312 270.078125 255.289062 270.558594 C 254.128906 271.039062 252.980469 271.546875 251.847656 272.085938 C 250.714844 272.621094 249.59375 273.183594 248.484375 273.777344 C 247.378906 274.367188 246.289062 274.988281 245.210938 275.632812 C 244.136719 276.277344 243.074219 276.949219 242.03125 277.644531 C 240.988281 278.34375 239.964844 279.0625 238.957031 279.8125 C 237.949219 280.558594 236.957031 281.332031 235.988281 282.125 C 235.019531 282.921875 234.070312 283.742188 233.140625 284.585938 C 232.210938 285.425781 231.300781 286.292969 230.414062 287.179688 C 229.527344 288.066406 228.660156 288.976562 227.820312 289.90625 C 226.976562 290.835938 226.15625 291.785156 225.359375 292.753906 C 224.566406 293.726562 223.792969 294.714844 223.046875 295.722656 C 222.296875 296.730469 221.574219 297.753906 220.878906 298.796875 C 220.183594 299.839844 219.511719 300.902344 218.867188 301.976562 C 218.21875 303.054688 217.601562 304.144531 217.011719 305.25 C 216.417969 306.359375 215.855469 307.480469 215.320312 308.613281 C 214.78125 309.746094 214.273438 310.894531 213.792969 312.054688 C 213.3125 313.214844 212.863281 314.382812 212.4375 315.566406 C 212.015625 316.746094 211.625 317.9375 211.257812 319.136719 C 210.894531 320.339844 210.558594 321.546875 210.253906 322.765625 C 209.949219 323.980469 209.675781 325.207031 209.429688 326.4375 C 209.1875 327.667969 208.972656 328.902344 208.789062 330.144531 C 208.601562 331.386719 208.449219 332.628906 208.328125 333.878906 C 208.203125 335.128906 208.113281 336.378906 208.050781 337.632812 C 207.988281 338.886719 207.957031 340.140625 207.957031 341.394531 C 207.957031 342.648438 207.988281 343.902344 208.050781 345.15625 C 208.113281 346.410156 208.203125 347.660156 208.328125 348.910156 C 208.449219 350.160156 208.601562 351.402344 208.789062 352.644531 C 208.972656 353.886719 209.1875 355.121094 209.429688 356.351562 C 209.675781 357.582031 209.949219 358.808594 210.253906 360.023438 C 210.558594 361.242188 210.894531 362.449219 211.257812 363.652344 C 211.625 364.851562 212.015625 366.042969 212.4375 367.222656 C 212.863281 368.40625 213.3125 369.574219 213.792969 370.734375 C 214.273438 371.894531 214.78125 373.042969 215.320312 374.175781 C 215.855469 375.308594 216.417969 376.429688 217.011719 377.535156 C 217.601562 378.644531 218.21875 379.734375 218.867188 380.8125 C 219.511719 381.886719 220.183594 382.949219 220.878906 383.992188 C 221.574219 385.035156 222.296875 386.058594 223.046875 387.066406 C 223.792969 388.074219 224.566406 389.0625 225.359375 390.035156 C 226.15625 391.003906 226.976562 391.953125 227.820312 392.882812 C 228.660156 393.8125 229.527344 394.722656 230.414062 395.609375 C 231.300781 396.496094 232.210938 397.363281 233.140625 398.203125 C 234.070312 399.046875 235.019531 399.867188 235.988281 400.664062 C 236.957031 401.457031 237.949219 402.230469 238.957031 402.976562 C 239.964844 403.726562 240.988281 404.445312 242.03125 405.144531 C 243.074219 405.839844 244.136719 406.511719 245.210938 407.15625 C 246.289062 407.800781 247.378906 408.421875 248.484375 409.011719 C 249.59375 409.605469 250.714844 410.167969 251.847656 410.703125 C 252.980469 411.242188 254.128906 411.75 255.289062 412.230469 C 256.445312 412.710938 257.617188 413.160156 258.800781 413.582031 C 259.980469 414.007812 261.171875 414.398438 262.371094 414.765625 C 263.574219 415.128906 264.78125 415.464844 266 415.769531 C 267.214844 416.074219 268.441406 416.347656 269.671875 416.59375 C 270.902344 416.835938 272.136719 417.050781 273.378906 417.234375 C 274.621094 417.421875 275.863281 417.574219 277.113281 417.695312 C 278.363281 417.820312 279.613281 417.910156 280.867188 417.972656 C 282.121094 418.035156 283.375 418.066406 284.628906 418.066406 C 285.882812 418.066406 287.136719 418.035156 288.390625 417.972656 C 289.644531 417.910156 290.894531 417.820312 292.144531 417.695312 C 293.390625 417.574219 294.636719 417.421875 295.878906 417.234375 C 297.121094 417.050781 298.355469 416.835938 299.585938 416.59375 C 300.816406 416.347656 302.039062 416.074219 303.257812 415.769531 C 304.476562 415.464844 305.683594 415.128906 306.886719 414.765625 C 308.085938 414.398438 309.277344 414.007812 310.457031 413.582031 C 311.640625 413.160156 312.808594 412.710938 313.96875 412.230469 C 315.128906 411.75 316.277344 411.242188 317.410156 410.703125 C 318.542969 410.167969 319.664062 409.605469 320.769531 409.011719 C 321.878906 408.421875 322.96875 407.800781 324.046875 407.15625 C 325.121094 406.511719 326.179688 405.839844 327.226562 405.144531 C 328.269531 404.445312 329.292969 403.726562 330.300781 402.976562 C 331.308594 402.230469 332.296875 401.457031 333.269531 400.664062 C 334.238281 399.867188 335.1875 399.046875 336.117188 398.203125 C 337.046875 397.363281 337.957031 396.496094 338.84375 395.609375 C 339.730469 394.722656 340.59375 393.8125 341.4375 392.882812 C 342.28125 391.953125 343.101562 391.003906 343.894531 390.035156 C 344.691406 389.0625 345.464844 388.074219 346.210938 387.066406 C 346.957031 386.058594 347.679688 385.035156 348.378906 383.992188 C 349.074219 382.949219 349.746094 381.886719 350.390625 380.8125 C 351.035156 379.734375 351.65625 378.644531 352.246094 377.535156 C 352.839844 376.429688 353.402344 375.308594 353.9375 374.175781 C 354.476562 373.042969 354.984375 371.894531 355.464844 370.734375 C 355.945312 369.574219 356.394531 368.40625 356.816406 367.222656 C 357.242188 366.042969 357.632812 364.851562 358 363.652344 C 358.363281 362.449219 358.695312 361.242188 359.003906 360.023438 C 359.308594 358.808594 359.582031 357.582031 359.828125 356.351562 C 360.070312 355.121094 360.285156 353.886719 360.46875 352.644531 C 360.652344 351.402344 360.808594 350.160156 360.929688 348.910156 C 361.054688 347.660156 361.144531 346.410156 361.207031 345.15625 C 361.269531 343.902344 361.300781 342.648438 361.300781 341.394531 C 361.300781 340.140625 361.269531 338.886719 361.207031 337.632812 C 361.144531 336.378906 361.054688 335.128906 360.929688 333.878906 C 360.808594 332.628906 360.652344 331.386719 360.46875 330.144531 C 360.285156 328.902344 360.070312 327.667969 359.828125 326.4375 C 359.582031 325.207031 359.308594 323.980469 359.003906 322.765625 C 358.695312 321.546875 358.363281 320.339844 358 319.136719 C 357.632812 317.9375 357.242188 316.746094 356.816406 315.566406 C 356.394531 314.382812 355.945312 313.214844 355.464844 312.054688 C 354.984375 310.894531 354.476562 309.746094 353.9375 308.613281 C 353.402344 307.480469 352.839844 306.359375 352.246094 305.25 C 351.65625 304.144531 351.035156 303.054688 350.390625 301.976562 C 349.746094 300.902344 349.074219 299.839844 348.378906 298.796875 C 347.679688 297.753906 346.957031 296.730469 346.210938 295.722656 C 345.464844 294.714844 344.691406 293.726562 343.894531 292.753906 C 343.101562 291.785156 342.28125 290.835938 341.4375 289.90625 C 340.59375 288.976562 339.730469 288.066406 338.84375 287.179688 C 337.957031 286.292969 337.046875 285.425781 336.117188 284.585938 C 335.1875 283.742188 334.238281 282.921875 333.269531 282.125 C 332.296875 281.332031 331.308594 280.558594 330.300781 279.8125 C 329.292969 279.0625 328.269531 278.34375 327.226562 277.644531 C 326.179688 276.949219 325.121094 276.277344 324.046875 275.632812 C 322.96875 274.988281 321.878906 274.367188 320.769531 273.777344 C 319.664062 273.183594 318.542969 272.621094 317.410156 272.085938 C 316.277344 271.546875 315.128906 271.039062 313.96875 270.558594 C 312.808594 270.078125 311.640625 269.628906 310.457031 269.207031 C 309.277344 268.78125 308.085938 268.390625 306.886719 268.023438 C 305.683594 267.660156 304.476562 267.324219 303.257812 267.019531 C 302.039062 266.714844 300.816406 266.441406 299.585938 266.195312 C 298.355469 265.953125 297.121094 265.738281 295.878906 265.554688 C 294.636719 265.367188 293.390625 265.214844 292.144531 265.09375 C 290.894531 264.96875 289.644531 264.878906 288.390625 264.816406 C 287.136719 264.753906 285.882812 264.722656 284.628906 264.722656 Z M 284.628906 264.722656 "/>
</g>
</svg>
