<?xml version="1.0" encoding="UTF-8"?>
<svg xmlns="http://www.w3.org/2000/svg" xmlns:xlink="http://www.w3.org/1999/xlink" width="595.5pt" height="842.249979pt" viewBox="0 0 595.5 842.249979" version="1.2">
<g id="surface1">
<path style=" stroke:none;fill-rule:nonzero;fill:rgb(21.179199%,14.898682%,12.548828%);fill-opacity:1;" d="M 260.515625 248.015625 C 260.515625 252.585938 256.808594 256.285156 252.246094 256.285156 C 247.679688 256.285156 243.980469 252.585938 243.980469 248.015625 C 243.980469 243.449219 247.679688 239.75 252.246094 239.75 C 256.808594 239.75 260.515625 243.449219 260.515625 248.015625 "/>
<path style=" stroke:none;fill-rule:nonzero;fill:rgb(12.548828%,8.239746%,6.269836%);fill-opacity:1;" d="M 260.515625 248.015625 C 260.515625 252.585938 256.808594 256.285156 252.246094 256.285156 C 247.679688 256.285156 243.980469 252.585938 243.980469 248.015625 C 243.980469 243.449219 247.679688 239.75 252.246094 239.75 C 256.808594 239.75 260.515625 243.449219 260.515625 248.015625 "/>
<path style=" stroke:none;fill-rule:nonzero;fill:rgb(16.859436%,12.159729%,9.799194%);fill-opacity:1;" d="M 252.246094 255.253906 C 248.78125 255.253906 245.886719 252.808594 245.183594 249.550781 C 245.183594 249.550781 248.242188 247.679688 252.046875 247.679688 C 254.277344 247.679688 256.761719 248.324219 259.039062 250.359375 C 258.0625 253.199219 255.414062 255.253906 252.246094 255.253906 "/>
<path style=" stroke:none;fill-rule:nonzero;fill:rgb(100%,100%,100%);fill-opacity:1;" d="M 252.421875 245.535156 C 252.421875 246.671875 251.5 247.59375 250.355469 247.59375 C 249.226562 247.59375 248.300781 246.671875 248.300781 245.535156 C 248.300781 244.398438 249.226562 243.480469 250.355469 243.480469 C 251.5 243.480469 252.421875 244.398438 252.421875 245.535156 "/>
<path style=" stroke:none;fill-rule:nonzero;fill:rgb(100%,100%,100%);fill-opacity:1;" d="M 249.351562 242.429688 C 249.351562 243.007812 248.878906 243.480469 248.300781 243.480469 C 247.722656 243.480469 247.257812 243.007812 247.257812 242.429688 C 247.257812 241.851562 247.722656 241.382812 248.300781 241.382812 C 248.878906 241.382812 249.351562 241.851562 249.351562 242.429688 "/>
<path style=" stroke:none;fill-rule:nonzero;fill:rgb(21.179199%,14.898682%,12.548828%);fill-opacity:1;" d="M 305.394531 248.015625 C 305.394531 252.585938 309.097656 256.285156 313.660156 256.285156 C 318.230469 256.285156 321.933594 252.585938 321.933594 248.015625 C 321.933594 243.449219 318.230469 239.75 313.660156 239.75 C 309.097656 239.75 305.394531 243.449219 305.394531 248.015625 "/>
<path style=" stroke:none;fill-rule:nonzero;fill:rgb(12.548828%,8.239746%,6.269836%);fill-opacity:1;" d="M 305.394531 248.015625 C 305.394531 252.585938 309.097656 256.285156 313.660156 256.285156 C 318.230469 256.285156 321.933594 252.585938 321.933594 248.015625 C 321.933594 243.449219 318.230469 239.75 313.660156 239.75 C 309.097656 239.75 305.394531 243.449219 305.394531 248.015625 "/>
<path style=" stroke:none;fill-rule:nonzero;fill:rgb(16.859436%,12.159729%,9.799194%);fill-opacity:1;" d="M 313.660156 255.253906 C 310.492188 255.253906 307.851562 253.199219 306.871094 250.359375 C 309.152344 248.324219 311.636719 247.679688 313.867188 247.679688 C 317.664062 247.679688 320.722656 249.550781 320.722656 249.550781 C 320.023438 252.808594 317.128906 255.253906 313.660156 255.253906 "/>
<path style=" stroke:none;fill-rule:nonzero;fill:rgb(100%,100%,100%);fill-opacity:1;" d="M 313.488281 245.535156 C 313.488281 246.671875 314.40625 247.59375 315.550781 247.59375 C 316.679688 247.59375 317.605469 246.671875 317.605469 245.535156 C 317.605469 244.398438 316.679688 243.480469 315.550781 243.480469 C 314.40625 243.480469 313.488281 244.398438 313.488281 245.535156 "/>
<path style=" stroke:none;fill-rule:nonzero;fill:rgb(100%,100%,100%);fill-opacity:1;" d="M 316.558594 242.429688 C 316.558594 243.007812 317.027344 243.480469 317.605469 243.480469 C 318.1875 243.480469 318.65625 243.007812 318.65625 242.429688 C 318.65625 241.851562 318.1875 241.382812 317.605469 241.382812 C 317.027344 241.382812 316.558594 241.851562 316.558594 242.429688 "/>
<path style=" stroke:none;fill-rule:nonzero;fill:rgb(94.898987%,37.249756%,41.178894%);fill-opacity:1;" d="M 286.535156 263.414062 L 279.375 263.414062 C 279.375 263.414062 276.363281 263.726562 276.738281 266.410156 C 276.738281 266.410156 277.773438 272.609375 282.957031 273.128906 C 288.132812 272.609375 289.171875 266.410156 289.171875 266.410156 C 289.550781 263.726562 286.535156 263.414062 286.535156 263.414062 "/>
<path style=" stroke:none;fill-rule:nonzero;fill:rgb(74.119568%,73.728943%,73.728943%);fill-opacity:1;" d="M 282.957031 273.128906 C 277.773438 272.609375 276.738281 266.410156 276.738281 266.410156 C 276.714844 266.253906 276.703125 266.109375 276.703125 265.96875 C 276.703125 266.109375 276.714844 266.253906 276.738281 266.410156 C 276.738281 266.410156 277.773438 272.609375 282.957031 273.128906 C 283.144531 273.109375 283.332031 273.085938 283.515625 273.046875 C 283.332031 273.085938 283.144531 273.109375 282.957031 273.128906 M 283.519531 273.046875 L 283.527344 273.046875 L 283.519531 273.046875 "/>
<path style=" stroke:none;fill-rule:nonzero;fill:rgb(70.588684%,27.449036%,29.40979%);fill-opacity:1;" d="M 282.957031 273.128906 C 277.773438 272.609375 276.738281 266.410156 276.738281 266.410156 C 276.714844 266.253906 276.703125 266.109375 276.703125 265.96875 C 276.703125 263.6875 279.375 263.414062 279.375 263.414062 L 280.152344 263.414062 C 278.921875 265.929688 281.558594 269.917969 284.335938 270.5 C 284.683594 270.574219 285.015625 270.609375 285.339844 270.609375 C 286.28125 270.609375 287.121094 270.320312 287.855469 269.832031 C 287.003906 271.238281 285.65625 272.636719 283.539062 273.042969 C 283.535156 273.042969 283.535156 273.046875 283.527344 273.046875 L 283.515625 273.046875 C 283.332031 273.085938 283.144531 273.109375 282.957031 273.128906 "/>
<path style=" stroke:none;fill-rule:nonzero;fill:rgb(95.689392%,43.919373%,46.269226%);fill-opacity:1;" d="M 285.035156 268.925781 C 283.289062 268.925781 281.113281 265.726562 283.015625 264.972656 L 283.023438 264.964844 L 285.96875 264.964844 C 285.96875 264.964844 287.472656 265.136719 287.8125 266.3125 C 287.484375 267.523438 286.640625 268.5625 285.355469 268.886719 C 285.246094 268.914062 285.144531 268.925781 285.035156 268.925781 "/>
<path style=" stroke:none;fill-rule:nonzero;fill:rgb(12.548828%,8.239746%,6.269836%);fill-opacity:1;" d="M 283.78125 272.71875 L 283.628906 277.277344 L 283.558594 279.558594 L 283.519531 280.695312 C 283.519531 281.078125 283.472656 281.542969 283.375 281.941406 C 283.179688 282.753906 282.796875 283.53125 282.246094 284.164062 C 281.691406 284.796875 280.976562 285.265625 280.226562 285.5625 C 278.703125 286.152344 277.097656 286.164062 275.570312 286.011719 L 275.601562 286.011719 C 275.269531 286.019531 274.957031 285.988281 274.640625 285.945312 C 274.332031 285.902344 274.015625 285.839844 273.710938 285.761719 C 273.105469 285.597656 272.507812 285.347656 271.980469 285.003906 C 271.449219 284.664062 271 284.199219 270.671875 283.664062 C 270.34375 283.125 270.164062 282.523438 270.078125 281.910156 C 270.207031 282.515625 270.425781 283.101562 270.777344 283.597656 C 271.121094 284.097656 271.585938 284.503906 272.109375 284.796875 C 272.628906 285.09375 273.207031 285.292969 273.796875 285.402344 C 274.089844 285.464844 274.386719 285.507812 274.691406 285.527344 C 274.980469 285.542969 275.292969 285.554688 275.578125 285.53125 L 275.609375 285.53125 C 277.097656 285.585938 278.621094 285.457031 279.917969 284.851562 C 280.554688 284.546875 281.125 284.121094 281.535156 283.574219 C 281.953125 283.039062 282.21875 282.394531 282.335938 281.722656 C 282.390625 281.367188 282.414062 281.078125 282.390625 280.695312 L 282.355469 279.558594 L 282.273438 277.277344 L 282.128906 272.71875 L 283.78125 272.71875 "/>
<path style=" stroke:none;fill-rule:nonzero;fill:rgb(12.548828%,8.239746%,6.269836%);fill-opacity:1;" d="M 283.945312 272.71875 L 283.800781 277.277344 L 283.726562 279.558594 L 283.683594 280.695312 C 283.667969 281.078125 283.683594 281.367188 283.738281 281.722656 C 283.855469 282.390625 284.121094 283.039062 284.542969 283.574219 C 284.949219 284.121094 285.519531 284.546875 286.160156 284.851562 C 287.453125 285.457031 288.980469 285.585938 290.46875 285.53125 L 290.5 285.53125 C 290.785156 285.554688 291.09375 285.542969 291.386719 285.527344 C 291.683594 285.507812 291.988281 285.464844 292.277344 285.402344 C 292.867188 285.292969 293.445312 285.09375 293.960938 284.796875 C 294.492188 284.503906 294.953125 284.097656 295.300781 283.597656 C 295.652344 283.101562 295.871094 282.515625 296 281.910156 C 295.914062 282.523438 295.730469 283.125 295.402344 283.664062 C 295.074219 284.199219 294.625 284.664062 294.097656 285.003906 C 293.5625 285.347656 292.972656 285.597656 292.363281 285.761719 C 292.054688 285.839844 291.746094 285.902344 291.433594 285.945312 C 291.117188 285.988281 290.808594 286.019531 290.472656 286.011719 L 290.503906 286.011719 C 288.980469 286.164062 287.375 286.152344 285.855469 285.5625 C 285.101562 285.265625 284.382812 284.796875 283.832031 284.15625 C 283.277344 283.53125 282.894531 282.753906 282.699219 281.941406 C 282.605469 281.542969 282.550781 281.078125 282.554688 280.695312 L 282.519531 279.558594 L 282.445312 277.277344 L 282.292969 272.71875 L 283.945312 272.71875 "/>
<path style=" stroke:none;fill-rule:nonzero;fill:rgb(96.469116%,54.119873%,43.919373%);fill-opacity:1;" d="M 249.035156 268.136719 C 249.035156 272.398438 243.453125 275.851562 236.566406 275.851562 C 229.679688 275.851562 224.09375 272.398438 224.09375 268.136719 C 224.09375 263.871094 229.679688 260.417969 236.566406 260.417969 C 243.453125 260.417969 249.035156 263.871094 249.035156 268.136719 "/>
<path style=" stroke:none;fill-rule:nonzero;fill:rgb(96.469116%,54.119873%,43.919373%);fill-opacity:1;" d="M 341.8125 268.136719 C 341.8125 272.398438 336.226562 275.851562 329.347656 275.851562 C 322.453125 275.851562 316.875 272.398438 316.875 268.136719 C 316.875 263.871094 322.453125 260.417969 329.347656 260.417969 C 336.226562 260.417969 341.8125 263.871094 341.8125 268.136719 "/>
<path style=" stroke:none;fill-rule:nonzero;fill:rgb(12.548828%,8.239746%,6.269836%);fill-opacity:1;" d="M 324.125 277.574219 L 388.21875 251.492188 C 388.425781 251.40625 388.53125 251.164062 388.445312 250.949219 C 388.359375 250.738281 388.117188 250.632812 387.90625 250.726562 L 323.816406 276.808594 C 323.601562 276.894531 323.507812 277.136719 323.589844 277.351562 C 323.675781 277.558594 323.917969 277.660156 324.125 277.574219 "/>
<path style=" stroke:none;fill-rule:nonzero;fill:rgb(12.548828%,8.239746%,6.269836%);fill-opacity:1;" d="M 326.726562 279.667969 L 392.171875 265.042969 C 392.390625 264.988281 392.53125 264.769531 392.480469 264.550781 C 392.433594 264.328125 392.214844 264.1875 391.988281 264.234375 L 326.542969 278.859375 C 326.324219 278.914062 326.1875 279.132812 326.234375 279.355469 C 326.285156 279.574219 326.503906 279.714844 326.726562 279.667969 "/>
<path style=" stroke:none;fill-rule:nonzero;fill:rgb(12.548828%,8.239746%,6.269836%);fill-opacity:1;" d="M 323.992188 282.613281 L 394.445312 279.21875 C 394.675781 279.203125 394.851562 279.011719 394.839844 278.785156 C 394.828125 278.554688 394.632812 278.378906 394.40625 278.390625 L 323.949219 281.789062 C 323.726562 281.800781 323.546875 281.996094 323.5625 282.21875 C 323.574219 282.449219 323.765625 282.625 323.992188 282.613281 "/>
<path style=" stroke:none;fill-rule:nonzero;fill:rgb(12.548828%,8.239746%,6.269836%);fill-opacity:1;" d="M 244.808594 276.808594 L 180.710938 250.726562 C 180.5 250.632812 180.261719 250.738281 180.175781 250.949219 C 180.089844 251.164062 180.191406 251.40625 180.402344 251.492188 L 244.488281 277.574219 C 244.703125 277.660156 244.945312 277.558594 245.03125 277.351562 C 245.117188 277.136719 245.019531 276.894531 244.804688 276.808594 "/>
<path style=" stroke:none;fill-rule:nonzero;fill:rgb(12.548828%,8.239746%,6.269836%);fill-opacity:1;" d="M 242.070312 278.859375 L 176.632812 264.234375 C 176.410156 264.1875 176.191406 264.328125 176.136719 264.550781 C 176.085938 264.769531 176.230469 264.988281 176.453125 265.042969 L 241.890625 279.667969 C 242.117188 279.714844 242.339844 279.574219 242.390625 279.355469 C 242.4375 279.132812 242.296875 278.914062 242.074219 278.859375 "/>
<path style=" stroke:none;fill-rule:nonzero;fill:rgb(12.548828%,8.239746%,6.269836%);fill-opacity:1;" d="M 244.667969 281.789062 L 174.214844 278.390625 C 173.988281 278.378906 173.796875 278.554688 173.785156 278.785156 C 173.773438 279.011719 173.953125 279.203125 174.179688 279.21875 L 244.632812 282.613281 C 244.855469 282.625 245.050781 282.449219 245.0625 282.21875 C 245.074219 281.996094 244.898438 281.800781 244.667969 281.789062 "/>
</g>
</svg>
