<?xml version="1.0" encoding="UTF-8"?>
<svg xmlns="http://www.w3.org/2000/svg" xmlns:xlink="http://www.w3.org/1999/xlink" width="595.5pt" height="842.249979pt" viewBox="0 0 595.5 842.249979" version="1.2">
<g id="surface1">
<path style=" stroke:none;fill-rule:nonzero;fill:rgb(55.288696%,33.329773%,14.118958%);fill-opacity:1;" d="M 248.601562 282.25 C 247.902344 284.101562 246.820312 285.804688 245.351562 287.367188 C 239.53125 293.449219 229.910156 293.699219 223.816406 287.878906 C 207.5625 272.507812 202.191406 249.082031 210.066406 228.183594 C 217.941406 207.289062 237.4375 193.234375 259.824219 192.339844 C 268.246094 191.988281 275.382812 198.554688 275.664062 206.9375 C 276.019531 215.351562 269.453125 222.476562 261.0625 222.746094 C 251.019531 223.1875 242.183594 229.546875 238.636719 238.953125 C 235.09375 248.363281 237.5625 258.890625 244.816406 265.851562 C 249.378906 270.125 250.695312 276.699219 248.601562 282.25 Z M 248.601562 282.25 "/>
<path style=" stroke:none;fill-rule:nonzero;fill:rgb(55.288696%,33.329773%,14.118958%);fill-opacity:1;" d="M 344.585938 206.65625 C 344.5 204.679688 344.824219 202.6875 345.558594 200.671875 C 348.511719 192.789062 357.253906 188.765625 365.148438 191.714844 C 386.148438 199.4375 400.3125 218.851562 401.308594 241.160156 C 402.304688 263.46875 389.925781 284.066406 369.707031 293.714844 C 362.101562 297.351562 352.953125 294.132812 349.394531 286.539062 C 345.75 278.945312 348.976562 269.8125 356.582031 266.253906 C 365.640625 261.890625 371.253906 252.566406 370.804688 242.523438 C 370.359375 232.480469 363.9375 223.773438 354.527344 220.234375 C 348.652344 218.105469 344.851562 212.582031 344.585938 206.65625 Z M 344.585938 206.65625 "/>
</g>
</svg>
