<?xml version="1.0" encoding="UTF-8"?>
<svg xmlns="http://www.w3.org/2000/svg" xmlns:xlink="http://www.w3.org/1999/xlink" width="595.5pt" height="842.249979pt" viewBox="0 0 595.5 842.249979" version="1.2">
<g id="surface1">
<path style=" stroke:none;fill-rule:nonzero;fill:rgb(87.838745%,67.449951%,41.178894%);fill-opacity:1;" d="M 316.65625 299.523438 C 318.730469 298.113281 321.101562 297.132812 323.765625 296.589844 C 334.25 294.527344 344.410156 301.296875 346.484375 311.789062 C 352.121094 339.613281 340.582031 367.839844 317.144531 383.769531 C 293.707031 399.699219 263.214844 400.035156 239.332031 384.617188 C 230.339844 378.824219 227.726562 366.796875 233.5625 357.894531 C 239.335938 348.90625 251.351562 346.308594 260.257812 352.160156 C 271.003906 359.039062 284.8125 358.894531 295.363281 351.722656 C 305.917969 344.550781 311.046875 331.824219 308.605469 319.300781 C 306.992188 311.535156 310.429688 303.753906 316.65625 299.523438 Z M 316.65625 299.523438 "/>
<path style=" stroke:none;fill-rule:nonzero;fill:rgb(100%,100%,100%);fill-opacity:1;" d="M 337.777344 296.617188 C 335.761719 295.640625 333.425781 294.871094 331.074219 294.574219 C 328.726562 294.277344 326.414062 294.390625 324.242188 294.835938 C 324.195312 294.851562 324.152344 294.847656 324.105469 294.863281 C 315.921875 296.707031 309.210938 303.46875 307.992188 312.199219 L 304.429688 340.34375 L 345.5 345.542969 L 349.058594 317.421875 C 350.0625 308.59375 345.335938 300.386719 337.777344 296.617188 Z M 337.777344 296.617188 "/>
<path style=" stroke:none;fill-rule:nonzero;fill:rgb(55.288696%,33.329773%,14.118958%);fill-opacity:1;" d="M 338.75 293.445312 C 336.734375 292.46875 334.398438 291.699219 332.046875 291.402344 C 329.699219 291.105469 327.386719 291.21875 325.214844 291.664062 C 325.167969 291.679688 325.125 291.675781 325.078125 291.691406 C 316.894531 293.535156 310.183594 300.296875 308.96875 309.003906 L 306.367188 329.535156 L 347.4375 334.734375 L 350.035156 314.21875 C 351.039062 305.421875 346.3125 297.214844 338.75 293.445312 Z M 338.75 293.445312 "/>
</g>
</svg>
