<?xml version="1.0" encoding="UTF-8"?>
<svg xmlns="http://www.w3.org/2000/svg" xmlns:xlink="http://www.w3.org/1999/xlink" width="595.5pt" height="842.249979pt" viewBox="0 0 595.5 842.249979" version="1.2">
<g id="surface1">
<path style=" stroke:none;fill-rule:nonzero;fill:rgb(55.288696%,33.329773%,14.118958%);fill-opacity:1;" d="M 274.875 365.984375 C 279.105469 362.046875 286.53125 361.601562 291.261719 365.085938 C 296.390625 368.871094 297.589844 375.644531 298.386719 381.773438 C 300.527344 377.589844 302.667969 373.207031 306.40625 370.117188 C 310.140625 367.078125 316.019531 365.785156 320.054688 368.472656 C 323.890625 371.015625 324.6875 376.042969 324.488281 380.476562 C 323.691406 397.761719 311.484375 413.949219 294.847656 420.921875 C 291.960938 413.402344 287.972656 406.230469 283.09375 399.65625 C 279.207031 394.523438 274.722656 389.644531 272.28125 383.765625 C 269.84375 377.886719 270.089844 370.417969 274.875 365.984375 Z M 274.875 365.984375 "/>
</g>
</svg>
